<svg width="24" height="24" viewBox="0 0 24 24" fill="none" xmlns="http://www.w3.org/2000/svg">
<path d="M22.014 5.15599L14.595 1.59799C12.945 0.807993 11.054 0.807993 9.406 1.59799L1.986 5.15599C0.779 5.73499 0 6.97399 0 8.31199V9.47399C0 10.812 0.779 12.051 1.986 12.63L9.398 16.184C9.913 16.431 10.452 16.591 11 16.684V12.643L3.003 8.80399C2.505 8.56499 2.295 7.96799 2.534 7.46999C2.772 6.97199 3.367 6.76199 3.868 7.00099L11.999 10.905L20.105 7.00099C20.605 6.76099 21.2 6.97299 21.439 7.46999C21.678 7.96799 21.468 8.56599 20.97 8.80399L12.999 12.643V16.681C13.546 16.587 14.086 16.425 14.601 16.176L22.021 12.593C23.223 12.012 24 10.776 24 9.44099V8.31099C24 6.97299 23.221 5.73499 22.014 5.15599Z" fill="white"/>
<path d="M11 23.173C10.453 23.08 9.913 22.92 9.398 22.672L1.135 18.71C0.441 18.377 0 17.676 0 16.907V15.594C0 15.25 0.177 14.931 0.467 14.748C0.758 14.565 1.122 14.544 1.433 14.692L10.264 18.926C10.502 19.04 10.75 19.118 11 19.183V23.173ZM23.531 14.71C23.24 14.526 22.875 14.506 22.565 14.657L13.732 18.923C13.495 19.037 13.248 19.115 13 19.18V23.17C13.547 23.076 14.087 22.914 14.602 22.665L22.87 18.673C23.561 18.339 24 17.639 24 16.872V15.557C24 15.213 23.823 14.893 23.531 14.71Z" fill="white"/>
</svg>
