<svg width="189" height="55" viewBox="0 0 189 55" fill="none" xmlns="http://www.w3.org/2000/svg">
<path fill-rule="evenodd" clip-rule="evenodd" d="M15.3178 3.80078H159.318ZM158.818 51.8008H162.318L186.318 27.8008L162.318 3.80078H158.818M15.3178 51.8008H159.318ZM15.3178 3.80078H3.31782V51.8008H15.3178M15.3178 3.80078C32.6178 2.50078 50.1178 2.10078 67.4178 3.80078C83.6178 5.40078 100.118 5.10078 116.418 3.80078C130.618 2.70078 145.018 4.80078 159.318 3.80078M158.818 51.8008C159.918 52.0008 161.118 52.0008 162.318 51.8008C169.018 42.7008 179.218 36.6008 186.318 27.8008C179.418 18.8008 170.918 11.1008 162.318 3.80078C161.218 3.50078 159.918 3.60078 158.818 3.80078M15.3178 51.8008C31.9178 51.0008 48.6178 50.7008 65.2178 51.8008C80.7178 52.9008 96.4178 53.2008 111.918 51.8008C127.618 50.4008 143.518 51.6008 159.318 51.8008M15.3178 3.80078C11.3178 3.80078 7.31782 4.00078 3.31782 3.80078C3.91782 19.8008 3.01782 35.8008 3.31782 51.8008C7.01782 50.3008 11.4178 51.1008 15.3178 51.8008M15.3178 3.80078C21.5178 5.40078 28.2178 5.00078 34.5178 3.80078C41.5178 2.50078 48.8178 4.40078 55.9178 3.80078C63.4178 3.20078 71.1178 2.10078 78.5178 3.80078C84.6178 5.30078 91.2178 4.20078 97.5178 3.80078C104.318 3.40078 111.518 1.60078 118.018 3.80078C124.618 6.10078 132.418 6.20078 139.018 3.80078C145.418 1.50078 153.018 1.30078 159.318 3.80078M158.818 51.8008C159.918 52.1008 161.218 52.1008 162.318 51.8008C165.918 47.8008 171.618 45.3008 173.818 40.3008C176.118 34.9008 181.118 30.6008 186.318 27.8008C176.218 22.7008 169.818 12.3008 162.318 3.80078C161.218 4.10078 160.018 3.70078 158.818 3.80078M15.3178 51.8008C24.0178 50.7008 32.9178 50.8008 41.6178 51.8008C52.3178 53.0008 63.6178 48.6008 73.9178 51.8008C83.3178 54.7008 93.9178 49.0008 103.318 51.8008C112.418 54.5008 122.318 51.8008 131.818 51.8008C141.018 51.8008 150.218 52.6008 159.318 51.8008M15.3178 3.80078C11.5178 2.70078 7.31782 4.20078 3.31782 3.80078C0.117819 11.7008 3.81782 20.8008 3.31782 29.3008C2.81782 36.8008 5.71782 44.7008 3.31782 51.8008C7.31782 52.4008 11.3178 52.5008 15.3178 51.8008" fill="#3D3D3D"/>
<path d="M15.3178 3.80078H159.318M15.3178 3.80078H3.31782M15.3178 3.80078C32.6178 2.50078 50.1178 2.10078 67.4178 3.80078C83.6178 5.40078 100.118 5.10078 116.418 3.80078C130.618 2.70078 145.018 4.80078 159.318 3.80078M15.3178 3.80078C11.3178 3.80078 7.31782 4.00078 3.31782 3.80078M15.3178 3.80078C21.5178 5.40078 28.2178 5.00078 34.5178 3.80078C41.5178 2.50078 48.8178 4.40078 55.9178 3.80078C63.4178 3.20078 71.1178 2.10078 78.5178 3.80078C84.6178 5.30078 91.2178 4.20078 97.5178 3.80078C104.318 3.40078 111.518 1.60078 118.018 3.80078C124.618 6.10078 132.418 6.20078 139.018 3.80078C145.418 1.50078 153.018 1.30078 159.318 3.80078M15.3178 3.80078C11.5178 2.70078 7.31782 4.20078 3.31782 3.80078M158.818 51.8008H162.318M158.818 51.8008C159.918 52.0008 161.118 52.0008 162.318 51.8008M158.818 51.8008C159.918 52.1008 161.218 52.1008 162.318 51.8008M162.318 51.8008L186.318 27.8008M162.318 51.8008C169.018 42.7008 179.218 36.6008 186.318 27.8008M162.318 51.8008C165.918 47.8008 171.618 45.3008 173.818 40.3008C176.118 34.9008 181.118 30.6008 186.318 27.8008M186.318 27.8008L162.318 3.80078M186.318 27.8008C179.418 18.8008 170.918 11.1008 162.318 3.80078M186.318 27.8008C176.218 22.7008 169.818 12.3008 162.318 3.80078M162.318 3.80078H158.818M162.318 3.80078C161.218 3.50078 159.918 3.60078 158.818 3.80078M162.318 3.80078C161.218 4.10078 160.018 3.70078 158.818 3.80078M15.3178 51.8008H159.318M15.3178 51.8008H3.31782M15.3178 51.8008C31.9178 51.0008 48.6178 50.7008 65.2178 51.8008C80.7178 52.9008 96.4178 53.2008 111.918 51.8008C127.618 50.4008 143.518 51.6008 159.318 51.8008M15.3178 51.8008C11.4178 51.1008 7.01782 50.3008 3.31782 51.8008M15.3178 51.8008C24.0178 50.7008 32.9178 50.8008 41.6178 51.8008C52.3178 53.0008 63.6178 48.6008 73.9178 51.8008C83.3178 54.7008 93.9178 49.0008 103.318 51.8008C112.418 54.5008 122.318 51.8008 131.818 51.8008C141.018 51.8008 150.218 52.6008 159.318 51.8008M15.3178 51.8008C11.3178 52.5008 7.31782 52.4008 3.31782 51.8008M3.31782 3.80078V51.8008M3.31782 3.80078C3.91782 19.8008 3.01782 35.8008 3.31782 51.8008M3.31782 3.80078C0.117819 11.7008 3.81782 20.8008 3.31782 29.3008C2.81782 36.8008 5.71782 44.7008 3.31782 51.8008" stroke="#3D3D3D" stroke-width="4" stroke-linecap="round" stroke-linejoin="round"/>
</svg>
