<svg width="1400" height="594" viewBox="0 0 1400 594" fill="none" xmlns="http://www.w3.org/2000/svg">
<g opacity="0.3">
<path d="M472.991 593.851C466.085 593.851 459.363 593.365 452.903 592.398C439.355 590.366 426.838 586.196 415.7 580.001C403.728 573.345 393.228 564.276 384.489 553.046C366.925 530.473 358.138 503.441 349.639 477.298C347.97 472.165 346.244 466.857 344.491 461.707C332.533 426.604 317.374 395.856 298.151 367.705C259.804 311.55 205.876 263.626 142.194 229.114C68.5464 189.203 -10.637 169.321 -80.7713 173.133C-121.993 175.375 -176.458 196.69 -200.799 233.093C-215.245 254.697 -216.41 278.673 -204.166 302.423L-204.409 302.524C-210.829 290.068 -213.626 277.58 -212.72 265.409C-211.89 254.243 -207.957 243.329 -201.029 232.968C-190.011 216.49 -171.841 201.886 -148.482 190.732C-126.898 180.427 -102.858 174.091 -80.7874 172.892C-44.0838 170.898 -5.04784 175.322 35.2358 186.043C71.7524 195.763 107.785 210.183 142.333 228.906C206.053 263.437 260.013 311.388 298.381 367.576C317.614 395.746 332.781 426.511 344.748 461.633C346.503 466.783 348.229 472.093 349.896 477.227C358.387 503.35 367.168 530.363 384.708 552.902C401.671 574.703 424.631 587.909 452.948 592.154C492.163 598.033 539.783 585.737 580.329 559.259C638.758 521.105 679.309 465.569 718.527 411.863C725.401 402.45 732.508 392.716 739.545 383.316C757.814 358.908 782.556 327.28 811.961 299.104C842.017 270.303 872.56 249.143 905.336 234.412C925.398 225.395 946.659 219.32 968.529 216.356C988.73 213.618 1010.11 213.448 1032.08 215.847C1069.76 219.965 1110.36 231.597 1156.2 251.404C1246.45 290.409 1336.6 337.753 1424.15 392.123C1507.37 443.799 1588.98 502.275 1666.73 565.92L1666.55 566.097C1505.39 434.163 1333.64 328.358 1156.08 251.619C1055.77 208.264 976.128 202.863 905.457 234.625C833.559 266.936 783.334 325.247 739.767 383.448C732.732 392.845 725.625 402.579 718.751 411.992C679.523 465.717 638.959 521.27 580.489 559.451C561.595 571.79 540.339 581.414 519.022 587.281C507.76 590.38 496.566 592.407 485.746 593.306C481.434 593.671 477.178 593.851 472.991 593.851Z" fill="#3D3E40" fill-opacity="0.25"/>
<path d="M479.744 580.464C462.132 580.464 445.819 577.465 431.239 571.545C414.982 564.944 400.953 554.715 389.54 541.145C388.53 539.943 387.528 538.701 386.561 537.448C369.184 514.974 360.007 488.293 351.134 462.49C349.339 457.275 347.485 451.881 345.604 446.647C334.401 415.483 320.912 388.016 304.361 362.681C302.323 359.562 300.212 356.436 298.083 353.391C259.172 297.719 204.806 250.402 140.862 216.554C66.6827 177.324 -12.7251 158.265 -82.7339 162.889C-123.656 165.621 -177.87 187.285 -202.316 223.408C-216.954 245.039 -218.61 269.062 -207.111 292.882L-207.357 292.978C-213.385 280.493 -215.861 267.982 -214.715 255.796C-213.662 244.604 -209.569 233.665 -202.546 223.284C-191.415 206.834 -173.299 192.213 -150.159 181.002C-128.772 170.639 -104.837 164.122 -82.7579 162.65C-46.0998 160.229 -7.02106 164.23 33.3908 174.54C69.9956 183.879 106.2 197.946 140.996 216.348C204.977 250.215 259.373 297.561 298.307 353.265C300.436 356.312 302.55 359.44 304.588 362.561C321.15 387.913 334.647 415.395 345.855 446.575C347.738 451.809 349.593 457.203 351.388 462.42C360.258 488.207 369.427 514.869 386.78 537.312C387.744 538.56 388.746 539.802 389.753 541.002C413.339 569.052 445.747 580.464 479.827 580.464C480.014 580.464 480.198 580.464 480.385 580.464C480.171 580.461 479.957 580.464 479.744 580.464ZM487.013 580.297C518.697 578.841 551.39 567.95 579.438 551.749C639.938 516.659 683.419 462.461 725.472 410.048C727.203 407.888 728.934 405.732 730.666 403.577C734.467 398.845 738.974 393.243 743.575 387.595C764.214 362.27 789.191 332.803 817.958 306.28C848.564 278.058 879.142 257.115 911.434 242.252C931.277 233.13 952.247 226.704 973.762 223.152C993.696 219.861 1014.76 218.932 1036.37 220.387C1073.69 222.904 1113.83 232.444 1159.06 249.556C1203.17 266.213 1239.42 281.893 1273.16 298.902C1320.95 323.021 1366.47 350.81 1404.7 374.812C1493.58 430.774 1580.78 494.318 1663.89 563.682L1663.71 563.857C1580.61 494.502 1493.42 430.962 1404.55 375.008C1366.33 351.009 1320.81 323.224 1273.03 299.112C1239.3 282.108 1203.06 266.433 1158.96 249.78C1060.42 212.503 981.801 210.178 911.557 242.467C838.652 276.017 786.734 335.044 743.792 387.739C739.188 393.386 734.684 398.986 730.882 403.72C729.151 405.873 727.419 408.031 725.688 410.192C683.623 462.621 640.125 516.838 579.582 551.955C564.57 560.625 548.596 567.513 532.101 572.424C516.746 576.991 501.611 579.632 487.013 580.297Z" fill="#3D3E40" fill-opacity="0.25"/>
<path d="M487.189 567.385C485.07 567.385 482.965 567.344 480.876 567.261C463.28 566.565 446.996 562.954 432.478 556.523C416.601 549.49 402.844 539.072 391.594 525.557C390.594 524.353 389.598 523.108 388.636 521.855C371.454 499.491 361.895 473.166 352.654 447.712C350.728 442.406 348.734 436.919 346.715 431.594C334.959 400.535 321.115 373.288 304.385 348.295C302.314 345.205 300.171 342.105 298.01 339.084C258.536 283.897 203.732 237.187 139.526 204.003C64.8174 165.454 -14.8148 147.215 -84.7007 152.652C-124.049 155.761 -178.105 176.19 -203.807 213.692C-218.656 235.358 -220.818 259.446 -210.059 283.35L-210.307 283.438C-215.944 270.915 -218.095 258.375 -216.706 246.168C-215.429 234.94 -211.165 223.973 -204.034 213.567C-192.786 197.156 -174.728 182.53 -151.811 171.266C-130.624 160.854 -106.798 154.16 -84.7248 152.415C-48.1093 149.569 -8.9879 153.144 31.5496 163.043C68.2451 172.005 104.617 185.716 139.659 203.798C203.903 237.003 258.736 283.739 298.234 338.957C300.396 341.981 302.541 345.08 304.612 348.175C321.35 373.183 335.202 400.447 346.963 431.522C348.983 436.85 350.976 442.337 352.902 447.642C362.141 473.083 371.692 499.388 388.852 521.726C389.814 522.979 390.805 524.221 391.805 525.421C437.52 580.336 518.536 574.44 578.545 544.239C641.57 512.241 688.407 459.059 733.703 407.628L734.167 407.1C738.554 402.115 743.091 396.962 747.606 391.874C795.25 338.197 847.618 283.034 917.536 250.09C937.165 240.86 957.846 234.082 979.001 229.945C998.677 226.098 1019.42 224.408 1040.66 224.924C1077.69 225.823 1117.36 233.274 1161.94 247.705C1208.79 262.816 1244.04 276.706 1276.25 292.744C1322.14 315.642 1366.6 344.576 1405.82 370.105C1493.14 427.249 1579.02 491.623 1661.06 561.434L1660.88 561.606C1578.84 491.803 1492.97 427.436 1405.66 370.296C1366.45 344.772 1322 315.843 1276.12 292.952C1243.92 276.918 1208.68 263.033 1161.85 247.927C1065.21 216.648 987.622 217.401 917.659 250.298C847.786 283.221 795.44 338.36 747.814 392.018C743.299 397.106 738.763 402.261 734.376 407.244L733.911 407.772C711.338 433.401 687.998 459.902 662.794 483.574C634.468 510.176 606.953 530.086 578.673 544.442C549.087 559.331 516.858 567.385 487.189 567.385Z" fill="#3D3E40" fill-opacity="0.25"/>
<path d="M1658.05 559.352C1577.08 489.099 1492.54 423.906 1406.78 365.583C1403.14 363.131 1399.5 360.667 1395.85 358.196C1358.71 333.05 1320.29 307.048 1279.22 286.791C1239.37 267.194 1198.99 255.211 1164.74 246.074C1070.19 220.699 993.625 224.53 923.769 258.127C852.058 292.718 796.493 350.149 751.846 396.298C749.166 399.068 746.492 401.842 743.812 404.619C741.835 406.67 739.855 408.72 737.876 410.769C712.455 437.072 689.331 460.588 663.782 482.047C634.594 506.56 606.461 524.513 577.77 536.933C550.882 548.574 522.159 554.733 495.442 554.735C490.574 554.735 485.778 554.532 481.065 554.119C463.86 552.611 447.931 548.373 433.723 541.524C418.219 534.051 404.735 523.435 393.64 509.97C392.649 508.763 391.66 507.516 390.704 506.261C373.725 484.014 363.795 458.06 354.193 432.961C352.125 427.555 349.985 421.963 347.821 416.535C335.504 385.574 321.301 358.545 304.406 333.9C302.303 330.834 300.126 327.763 297.935 324.769C257.894 270.067 202.655 223.963 138.19 191.442C62.9523 153.574 -16.9016 136.159 -86.6646 142.401C-134.357 146.753 -183.126 172.053 -205.263 203.922C-220.345 225.634 -223.019 249.798 -213.003 273.802L-213.254 273.886C-218.499 261.317 -220.326 248.739 -218.686 236.501C-217.176 225.232 -212.736 214.229 -205.49 203.795C-194.125 187.431 -176.126 172.805 -153.438 161.501C-132.455 151.045 -108.751 144.177 -86.6914 142.165C-50.1187 138.891 -10.9571 142.043 29.7059 151.531C66.4896 160.115 103.036 173.472 138.323 191.231C202.828 223.772 258.097 269.902 298.162 324.637C300.355 327.634 302.533 330.707 304.635 333.774C321.542 358.432 335.75 385.476 348.074 416.452C350.238 421.882 352.378 427.471 354.446 432.88C364.043 457.964 373.968 483.901 390.926 506.123C391.882 507.375 392.868 508.62 393.856 509.825C441.581 567.741 522.696 560.507 577.655 536.716C643.226 508.328 693.403 456.415 737.675 410.611C739.655 408.56 741.632 406.51 743.612 404.462C746.289 401.685 748.966 398.91 751.646 396.14C777.131 369.799 802.298 344.201 829.966 320.613C861.783 293.485 892.427 272.977 923.646 257.916C943.069 248.574 963.457 241.445 984.245 236.73C1003.67 232.321 1024.1 229.873 1044.96 229.453C1081.75 228.712 1120.96 234.075 1164.82 245.845C1199.08 254.986 1239.48 266.974 1279.35 286.583C1320.44 306.847 1358.86 332.856 1396.02 358.007C1399.67 360.478 1403.31 362.942 1406.94 365.394C1492.71 423.722 1577.26 488.923 1658.24 559.183L1658.05 559.352Z" fill="#3D3E40" fill-opacity="0.25"/>
<path d="M1655.22 557.1C1573.79 485.055 1490.58 419.032 1407.89 360.869C1402.94 357.39 1397.88 353.803 1392.99 350.335C1357.93 325.499 1321.69 299.817 1282.32 280.629C1243 261.536 1202.28 251.508 1167.63 244.219C1075.38 224.629 999.835 231.536 929.877 265.955C863.149 298.904 810.873 348.452 760.316 396.366L754.765 401.626C750.38 405.782 745.846 410.077 741.377 414.29C690.77 461.93 640.109 506.581 576.868 529.418C561.522 534.961 545.764 538.801 530.028 540.84C513.129 543.026 496.715 543.057 481.238 540.93C464.427 538.619 448.859 533.766 434.967 526.503C419.848 518.599 406.633 507.79 395.696 494.378C394.71 493.164 393.729 491.914 392.781 490.662C376.011 468.546 365.722 442.974 355.773 418.243C353.552 412.725 351.255 407.018 348.936 401.476C336.048 370.611 321.492 343.798 304.436 319.508C302.304 316.473 300.095 313.425 297.869 310.455C257.265 256.238 201.59 210.742 136.86 178.882C61.0913 141.7 -18.9871 125.105 -88.6299 132.157C-135.887 137.045 -184.434 162.521 -206.684 194.113C-222.016 215.88 -225.22 240.137 -215.949 264.263L-216.203 264.342C-221.055 251.719 -222.553 239.093 -220.659 226.818C-218.912 215.502 -214.287 204.456 -206.913 193.989C-195.425 177.68 -177.49 163.068 -155.043 151.731C-134.268 141.237 -110.693 134.203 -88.6619 131.923C-52.132 128.224 -12.9304 130.951 27.8609 140.027C64.7354 148.234 101.45 161.235 136.986 178.674C201.753 210.55 257.46 256.075 298.088 310.323C300.314 313.296 302.526 316.346 304.658 319.381C321.725 343.684 336.288 370.51 349.182 401.392C351.501 406.934 353.798 412.644 356.018 418.162C365.962 442.878 376.246 468.438 392.997 490.528C393.943 491.775 394.923 493.023 395.907 494.237C442.482 551.348 519.87 549.744 576.764 529.199C639.954 506.38 690.593 461.746 741.179 414.128C745.649 409.915 750.183 405.62 754.567 401.464L760.119 396.204C784.936 372.685 810.595 348.363 838.463 325.738C870.026 300.114 899.885 280.49 929.744 265.745C948.969 256.286 969.068 248.805 989.48 243.514C1008.67 238.538 1028.78 235.331 1049.25 233.981C1085.88 231.565 1124.62 234.839 1167.68 243.985C1202.35 251.279 1243.1 261.309 1282.44 280.419C1321.83 299.614 1358.09 325.303 1393.15 350.146C1398.05 353.614 1403.11 357.199 1408.06 360.681C1490.75 418.848 1573.96 484.876 1655.4 556.928L1655.22 557.1Z" fill="#3D3E40" fill-opacity="0.25"/>
<path d="M1652.38 554.85C1571.65 482.004 1489.77 415.154 1409 356.16C1402.93 351.726 1396.71 347.116 1390.7 342.659C1357.53 318.091 1323.24 292.687 1285.41 274.473C1246.28 255.708 1205.37 247.714 1170.51 242.37C1080.83 228.411 1006.3 238.396 935.981 273.79C874.612 304.808 824.227 348.768 775.498 391.279C770.371 395.753 765.068 400.377 759.901 404.858C753.833 410.121 749.198 414.119 744.872 417.819C721.706 437.621 694.124 460.423 665.179 479.389C634.505 499.486 605.322 513.395 575.961 521.912C560.521 526.391 544.83 529.216 529.321 530.306C512.668 531.477 496.545 530.616 481.402 527.746C464.995 524.637 449.79 519.166 436.205 511.488C421.473 503.161 408.534 492.158 397.746 478.789C396.773 477.578 395.798 476.325 394.852 475.068C378.304 453.1 367.671 427.923 357.385 403.575C354.999 397.928 352.533 392.089 350.046 386.418C336.578 355.638 321.667 329.046 304.459 305.116C302.295 302.107 300.053 299.089 297.796 296.142C256.628 242.411 200.514 197.521 135.523 166.324C59.2275 129.825 -21.0752 114.055 -90.5951 121.913C-130.152 126.482 -181.817 147.532 -208.069 184.255C-223.677 206.089 -227.423 230.456 -218.897 254.721L-219.151 254.793C-223.61 242.105 -224.775 229.424 -222.616 217.102C-220.623 205.728 -215.806 194.634 -208.293 184.126C-196.682 167.884 -178.814 153.297 -156.615 141.935C-136.048 131.41 -112.615 124.216 -90.6272 121.676C-54.14 117.551 -14.8956 119.853 26.0185 128.518C62.9813 136.347 99.8665 148.995 135.648 166.113C200.677 197.328 256.823 242.243 298.015 296.006C300.272 298.953 302.516 301.976 304.68 304.987C321.897 328.929 336.815 355.536 350.291 386.329C352.781 392.003 355.247 397.841 357.633 403.489C367.911 427.825 378.542 452.988 395.072 474.932C396.017 476.187 396.99 477.437 397.962 478.646C436.71 526.668 503.221 542.757 575.878 521.68C641.676 502.595 695.35 459.818 744.688 417.642C749.013 413.942 753.646 409.944 759.714 404.681C764.881 400.2 770.184 395.576 775.311 391.102C799.3 370.174 824.104 348.533 850.562 328.27C880.479 305.353 908.379 287.462 935.852 273.577C954.893 263.994 974.698 256.162 994.723 250.302C1013.69 244.75 1033.48 240.785 1053.55 238.513C1090.09 234.378 1128.36 235.561 1170.56 242.129C1205.44 247.477 1246.37 255.474 1285.54 274.256C1323.39 292.481 1357.69 317.893 1390.86 342.468C1396.88 346.925 1403.1 351.535 1409.17 355.968C1489.94 414.97 1571.83 481.824 1652.57 554.675L1652.38 554.85Z" fill="#3D3E40" fill-opacity="0.25"/>
<path d="M1649.55 552.599C1569.52 478.948 1488.96 411.269 1410.12 351.447C1403.41 346.359 1396.52 341.018 1389.86 335.853C1358.12 311.252 1325.3 285.814 1288.5 268.313C1249.35 249.772 1208.34 243.857 1173.4 240.516C1087.78 232.111 1012.11 245.556 942.085 281.62C886.324 310.466 838.525 349.055 792.3 386.376C782.962 393.913 773.309 401.709 763.924 409.139C758.182 413.687 753.096 417.681 748.367 421.347C726.376 438.377 697.124 460.213 665.865 478.059C634.457 495.988 604.75 507.877 575.049 514.404C542.655 521.523 510.325 521.576 481.556 514.559C465.561 510.657 450.717 504.572 437.436 496.473C423.097 487.728 410.433 476.534 399.792 463.206C398.828 461.991 397.861 460.737 396.92 459.48C380.607 437.679 369.642 412.915 359.041 388.969C356.476 383.175 353.826 377.186 351.152 371.367C337.093 340.669 321.827 314.292 304.48 290.732C302.284 287.75 300.01 284.758 297.721 281.837C255.989 228.591 199.44 184.306 134.187 153.775C57.3653 117.963 -23.1619 103.014 -92.5615 111.677C-139.594 117.676 -186.554 142.865 -209.413 174.355C-225.32 196.267 -229.619 220.761 -221.844 245.188L-222.101 245.253C-226.164 232.488 -226.993 219.741 -224.564 207.366C-222.32 195.928 -217.297 184.777 -209.637 174.223C-197.903 158.058 -180.105 143.504 -158.165 132.132C-137.814 121.586 -114.528 114.235 -92.5989 111.438C-56.1545 106.888 -16.8674 108.767 24.1723 117.019C61.2259 124.47 98.2821 136.764 134.31 153.56C199.6 184.11 256.181 228.418 297.94 281.699C300.229 284.619 302.503 287.614 304.702 290.599C322.057 314.172 337.331 340.561 351.397 371.274C354.072 377.093 356.722 383.085 359.287 388.878C369.883 412.812 380.842 437.564 397.139 459.343C398.08 460.601 399.044 461.85 400.009 463.064C438.091 510.776 503.502 529.881 574.985 514.172C640.153 499.85 696.744 461.007 748.19 421.167C752.916 417.501 758.006 413.51 763.745 408.962C773.128 401.532 782.783 393.739 792.118 386.201C838.354 348.873 886.161 310.274 941.949 281.417C960.821 271.697 980.338 263.516 999.956 257.097C1018.72 250.96 1038.19 246.235 1057.84 243.054C1094.37 237.139 1132.18 236.233 1173.42 240.282C1208.39 243.625 1249.43 249.543 1288.63 268.105C1325.45 285.618 1358.28 311.065 1390.03 335.677C1396.69 340.841 1403.58 346.18 1410.29 351.268C1489.14 411.094 1569.71 478.778 1649.74 552.434L1649.55 552.599Z" fill="#3D3E40" fill-opacity="0.25"/>
<path d="M1646.72 550.347C1567.4 475.883 1488.17 407.38 1411.23 346.736C1404.16 341.163 1396.89 335.263 1389.85 329.556C1359.27 304.746 1327.66 279.091 1291.6 262.154C1252.28 243.771 1211.24 239.964 1176.29 238.663C1093.9 235.375 1019.29 251.987 948.191 289.451C898.329 315.85 853.88 349.26 810.893 381.569C796.113 392.68 782.151 403.174 767.951 413.419C762.175 417.589 756.914 421.337 751.865 424.871C719.284 447.659 692.177 464.135 666.555 476.72C634.412 492.51 604.185 502.38 574.144 506.892C562.49 508.642 550.879 509.514 539.479 509.514C519.271 509.514 499.717 506.78 481.715 501.364C449.136 491.563 422.264 473.479 401.845 447.613C400.883 446.387 399.924 445.133 398.994 443.88C382.929 422.269 371.657 397.944 360.757 374.418C357.994 368.458 355.141 362.297 352.264 356.305C337.604 325.679 321.98 299.522 304.507 276.338C302.279 273.381 299.973 270.415 297.652 267.521C255.356 214.76 198.369 171.082 132.854 141.213C55.5063 106.089 -25.2427 91.9604 -94.5222 101.429C-141.75 108.018 -187.355 132.729 -210.703 164.386C-226.934 186.389 -231.801 211.029 -224.785 235.643L-225.045 235.702C-228.708 222.85 -229.194 210.025 -226.487 197.586C-223.981 186.072 -218.747 174.858 -210.925 164.254C-199.068 148.178 -181.347 133.671 -159.674 122.3C-139.543 111.737 -116.419 104.242 -94.5622 101.193C-58.1605 96.2168 -18.8307 97.6698 22.332 105.511C59.4764 112.587 96.701 124.527 132.977 140.998C198.53 170.886 255.549 214.588 297.871 267.38C300.193 270.277 302.498 273.243 304.729 276.201C322.213 299.398 337.845 325.569 352.509 356.207C355.387 362.199 358.243 368.362 361.003 374.323C371.898 397.837 383.164 422.152 399.216 443.744C400.146 444.994 401.102 446.249 402.064 447.472C440.194 495.777 502.899 517.348 574.099 506.653C641.877 496.472 701.91 459.503 751.699 424.68C756.746 421.145 762.007 417.401 767.783 413.23C781.98 402.985 795.942 392.493 810.722 381.383C853.715 349.067 898.174 315.651 948.055 289.243C966.786 279.373 986.011 270.841 1005.2 263.881C1023.78 257.142 1042.94 251.657 1062.13 247.582C1098.74 239.813 1136.08 236.816 1176.3 238.422C1211.28 239.722 1252.35 243.534 1291.72 261.938C1327.81 278.888 1359.44 304.555 1390.03 329.374C1397.07 335.081 1404.34 340.982 1411.4 346.552C1488.35 407.2 1567.58 475.711 1646.91 550.18L1646.72 550.347Z" fill="#3D3E40" fill-opacity="0.25"/>
<path d="M1643.88 548.097C1564.17 471.754 1488.44 404.348 1412.34 342.024C1405.08 336.078 1397.94 330.005 1390.37 323.577C1360.78 298.445 1330.19 272.459 1294.69 255.995C1254.88 237.62 1212.04 236.09 1179.17 236.812C1100.54 238.313 1026.98 258.094 954.294 297.286C910.684 320.914 870.42 349.289 831.48 376.732C811.015 391.155 791.685 404.775 771.973 417.702C766.122 421.543 760.686 425.042 755.358 428.399C722.334 449.182 694.334 464.109 667.238 475.38C634.35 489.059 603.601 496.91 573.235 499.381C557.632 500.65 542.137 500.411 527.178 498.672C511.34 496.829 496.095 493.294 481.869 488.168C450.335 476.804 424.102 457.917 403.896 432.027C402.942 430.799 401.991 429.542 401.066 428.289C385.271 406.9 373.716 383.039 362.541 359.965C359.559 353.809 356.476 347.442 353.374 341.252C338.1 310.693 322.123 284.753 304.53 261.951C302.268 259.021 299.93 256.082 297.581 253.214C254.722 200.937 197.3 157.867 131.523 128.66C70.8116 101.814 8.2034 87.8074 -49.2084 87.8074C-65.4389 87.8074 -81.2419 88.9258 -96.4838 91.189C-143.142 98.2535 -188.462 123.053 -211.946 154.37C-228.521 176.477 -233.979 201.284 -227.73 226.108L-227.992 226.16C-231.254 213.207 -231.39 200.294 -228.398 187.783C-225.625 176.185 -220.164 164.898 -212.17 154.237C-200.191 138.26 -182.552 123.813 -161.157 112.454C-140.962 101.731 -118.613 94.2959 -96.5319 90.9548C-60.173 85.5537 -20.8004 86.5837 20.4878 94.0115C57.7204 100.708 95.1186 112.292 131.641 128.443C197.455 157.666 254.912 200.76 297.798 253.068C300.149 255.936 302.489 258.878 304.752 261.81C322.353 284.624 338.338 310.576 353.62 341.149C356.722 347.339 359.808 353.706 362.789 359.865C373.959 382.929 385.509 406.78 401.291 428.153C402.215 429.403 403.166 430.66 404.117 431.886C441.903 480.298 503.533 504.809 573.214 499.14C643.722 493.402 707.511 458.213 755.209 428.199C760.536 424.841 765.97 421.342 771.821 417.504C791.53 404.582 810.857 390.959 831.32 376.539C870.265 349.093 910.535 320.711 954.161 297.075C991.583 276.897 1028.31 262.192 1066.43 252.117C1103.2 242.399 1140.08 237.314 1179.17 236.568C1201.48 236.078 1219.67 236.929 1236.44 239.242C1258.09 242.23 1277.18 247.638 1294.82 255.778C1330.35 272.256 1360.96 298.256 1390.56 323.4C1398.12 329.829 1405.27 335.899 1412.53 341.845C1488.62 404.171 1564.37 471.582 1644.08 547.929L1643.88 548.097Z" fill="#3D3E40" fill-opacity="0.25"/>
<path d="M1641.05 545.845C1562.07 468.666 1487.62 400.456 1413.46 337.31C1406.12 331.063 1398.88 324.627 1391.22 317.814C1362.53 292.285 1332.85 265.884 1297.79 249.834C1257.64 231.544 1214.85 232.275 1182.06 234.954C1107.86 240.807 1035.35 263.757 960.4 305.112C923.472 325.586 888.312 349.016 854.31 371.677C827.43 389.589 802.044 406.51 776 421.975C770.115 425.473 764.344 428.819 758.853 431.917C725.765 450.567 696.021 464.34 667.923 474.024C634.278 485.62 603.009 491.456 572.327 491.862C556.716 492.067 541.282 490.806 526.462 488.107C510.926 485.278 495.976 480.854 482.024 474.956C451.572 462.082 425.975 442.391 405.945 416.43C405.005 415.204 404.059 413.945 403.137 412.685C387.639 391.556 375.833 368.2 364.414 345.613C361.184 339.222 357.842 332.612 354.483 326.186C338.584 295.683 322.252 269.964 304.555 247.551C302.26 244.648 299.89 241.734 297.51 238.893C254.087 187.101 196.226 144.638 130.188 116.093C51.7896 82.348 -29.4108 69.8633 -98.4498 80.938C-144.504 88.4542 -189.522 113.319 -213.137 144.28C-230.086 166.503 -236.151 191.496 -230.679 216.562L-230.941 216.607C-233.795 203.541 -233.576 190.529 -230.287 177.931C-227.233 166.238 -221.54 154.869 -213.359 144.143C-201.262 128.282 -183.711 113.906 -162.605 102.571C-142.642 91.8502 -120.475 84.2886 -98.4979 80.7014C-62.179 74.8773 -22.7664 75.4795 18.6447 82.4962C55.9682 88.8199 93.5347 100.05 130.302 115.876C196.381 144.435 254.274 186.925 297.721 238.747C300.104 241.588 302.476 244.504 304.771 247.41C322.479 269.834 338.817 295.566 354.724 326.08C358.085 332.507 361.424 339.117 364.657 345.51C376.071 368.087 387.871 391.434 403.359 412.549C404.281 413.806 405.227 415.065 406.164 416.289C444.348 465.779 503.358 492.536 572.322 491.618C628.28 490.877 687.506 471.839 758.709 431.709C764.197 428.611 769.965 425.268 775.851 421.769C801.886 406.306 827.272 389.391 854.147 371.479C888.155 348.815 923.319 325.38 960.258 304.901C998.047 284.05 1034.18 268.267 1070.72 256.645C1107.74 244.872 1144.15 237.695 1182.04 234.708C1214.86 232.024 1257.7 231.295 1297.91 249.614C1333.01 265.683 1362.7 292.096 1391.41 317.637C1399.07 324.451 1406.31 330.884 1413.64 337.129C1487.81 400.277 1562.26 468.491 1641.24 545.675L1641.05 545.845Z" fill="#3D3E40" fill-opacity="0.25"/>
<path d="M1638.22 543.593C1559.97 465.576 1486.82 396.558 1414.57 332.6C1407.24 326.107 1400 319.36 1392.33 312.217C1364.44 286.232 1335.61 259.362 1300.88 243.675C1260.36 225.452 1217.64 228.451 1184.95 233.1C1115.13 242.838 1045.72 268.209 966.507 312.943C936.798 329.797 907.765 348.285 879.688 366.164C845.587 387.878 813.377 408.39 780.026 426.255C774.018 429.476 768.07 432.569 762.35 435.442C728.668 452.348 698.006 464.526 668.609 472.671C652.143 477.233 635.889 480.539 620.297 482.496C603.666 484.582 587.221 485.206 571.421 484.351C539.364 482.613 509.339 475.008 482.184 461.749C452.857 447.429 427.898 426.938 408.002 400.841C407.067 399.605 406.129 398.343 405.213 397.091C390.046 376.273 378.029 353.471 366.41 331.422C362.891 324.747 359.255 317.845 355.597 311.129C339.057 280.677 322.37 255.175 304.581 233.162C302.254 230.282 299.85 227.395 297.44 224.582C253.453 173.274 195.157 131.417 128.857 103.539C49.9353 70.4847 -31.4869 58.8221 -100.411 70.6974C-174.211 83.61 -246.125 139.402 -233.621 207.024L-233.886 207.062C-237.014 190.146 -235.181 173.482 -228.441 157.527C-222.285 142.956 -212.184 129.242 -198.416 116.772C-185.616 105.176 -170.26 95.1651 -152.776 87.0156C-136.147 79.2652 -118.058 73.539 -100.464 70.4608C-64.1884 64.2113 -24.7329 64.3905 16.8037 70.9962C54.218 76.9446 91.9555 87.8209 128.969 103.324C195.307 131.221 253.638 173.102 297.651 224.439C300.064 227.254 302.468 230.141 304.798 233.023C322.594 255.046 339.289 280.563 355.838 311.027C359.495 317.742 363.131 324.644 366.65 331.321C378.266 353.363 390.278 376.156 405.438 396.962C406.351 398.214 407.286 399.476 408.221 400.709C446.461 450.863 504.426 480.481 571.437 484.114C628.168 487.185 690.573 471.199 762.219 435.236C767.937 432.363 773.881 429.273 779.89 426.052C813.233 408.192 845.437 387.682 879.533 365.97C907.612 348.089 936.648 329.598 966.363 312.742C1045.61 267.99 1115.05 242.609 1184.91 232.863C1206.88 229.739 1225.06 228.74 1242.15 229.723C1263.99 230.977 1283.24 235.47 1301 243.46C1335.76 259.164 1364.62 286.05 1392.52 312.049C1400.19 319.19 1407.43 325.937 1414.76 332.428C1487.01 396.391 1560.17 465.411 1638.41 543.433L1638.22 543.593Z" fill="#3D3E40" fill-opacity="0.25"/>
<path d="M1635.39 541.342C1557.89 462.473 1486.02 392.653 1415.69 327.887C1408.41 321.186 1401.22 314.167 1393.6 306.732C1366.47 280.25 1338.42 252.864 1303.98 237.514C1262.58 219.138 1217.87 225.134 1187.84 231.243C1106.34 247.618 1033.31 285.689 972.615 320.775C950.801 333.436 929.043 346.848 907.998 359.818C865.783 385.837 825.911 410.412 784.056 430.535C777.9 433.496 771.777 436.333 765.851 438.969C731.512 454.214 699.93 464.796 669.302 471.316C634.581 478.708 601.348 480.567 570.519 476.839C538.849 473.008 509.183 463.487 482.348 448.538C454.202 432.86 429.882 411.569 410.058 385.254C409.133 384.018 408.201 382.754 407.29 381.497C392.499 361.061 380.333 338.885 368.564 317.439C364.709 310.41 360.72 303.145 356.712 296.073C339.279 265.239 322.723 240.678 304.612 218.772C302.253 215.919 299.819 213.06 297.374 210.271C252.818 159.45 194.084 118.201 127.522 90.9827C48.0766 58.6212 -33.57 47.7783 -102.377 60.4543C-176.441 74.2798 -246.885 129.314 -236.567 197.486L-236.832 197.517C-239.391 180.603 -237.176 163.955 -230.251 148.036C-223.903 133.451 -213.743 119.723 -200.048 107.239C-187.277 95.5952 -172.001 85.5098 -154.64 77.2576C-138.11 69.3996 -120.055 63.5086 -102.43 60.2177C-66.194 53.5427 -26.6985 53.299 14.9611 59.4912C52.4662 65.0644 90.3747 75.587 127.634 90.7652C194.236 117.998 253.003 159.271 297.58 210.123C300.024 212.915 302.461 215.775 304.823 218.629C322.945 240.544 339.507 265.119 356.947 295.965C360.955 303.037 364.944 310.305 368.799 317.333C380.565 338.773 392.729 360.942 407.509 381.368C408.42 382.625 409.35 383.887 410.274 385.122C448.81 436.276 505.731 468.764 570.551 476.602C628.687 483.634 692.529 471.251 765.731 438.754C771.654 436.12 777.778 433.286 783.928 430.325C825.772 410.207 865.639 385.636 907.846 359.62C928.891 346.65 950.651 333.236 972.469 320.572C1013.28 296.981 1047.23 279.552 1079.31 265.721C1117.07 249.442 1152.55 238.087 1187.78 231.008C1209.25 226.64 1227.97 224.661 1245 224.962C1266.93 225.349 1286.26 229.383 1304.1 237.299C1338.58 252.668 1366.65 280.07 1393.8 306.569C1401.41 314.002 1408.6 321.021 1415.88 327.717C1486.21 392.486 1558.08 462.311 1635.59 541.182L1635.39 541.342Z" fill="#3D3E40" fill-opacity="0.25"/>
<path d="M1632.55 539.088C1555.8 459.366 1485.23 388.741 1416.8 323.172C1409.62 316.296 1402.52 309.033 1395.01 301.342C1368.59 274.327 1341.28 246.392 1307.07 231.352C1265.22 213.02 1220.63 221.449 1190.73 229.385C1116.89 248.818 1051.03 285.818 978.723 328.604C965.682 336.349 952.492 344.344 939.735 352.077C890.672 381.817 839.942 412.568 788.082 434.813C781.782 437.518 775.477 440.102 769.345 442.491C734.774 455.951 701.346 465.191 669.988 469.954C634.465 475.35 600.695 475.137 569.608 469.325C538.381 463.487 509.075 452.046 482.503 435.322C455.612 418.397 431.925 396.307 412.101 369.667C411.185 368.429 410.26 367.162 409.355 365.905C395.01 345.947 382.766 324.493 370.925 303.747C366.659 296.271 362.248 288.542 357.815 281.021C339.701 250.218 322.8 225.868 304.627 204.387C302.242 201.567 299.773 198.733 297.294 195.965C252.182 145.622 193.015 104.98 126.186 78.426C46.2196 46.7577 -35.6488 36.7369 -104.343 50.2111C-176.056 64.4309 -247.802 117.534 -239.517 187.945L-239.781 187.969C-241.772 171.056 -239.175 154.427 -232.066 138.544C-225.528 123.941 -215.306 110.202 -201.686 97.7028C-176.556 74.6452 -141.097 57.2493 -104.402 49.9745C-68.2086 42.8765 -28.6704 42.2073 13.1147 47.9861C50.7107 53.1865 88.7875 63.353 126.293 78.2062C193.159 104.775 252.361 145.443 297.502 195.81C299.984 198.58 302.453 201.414 304.841 204.237C323.022 225.729 339.931 250.089 358.05 280.904C362.483 288.428 366.896 296.156 371.163 303.632C383.001 324.374 395.243 345.823 409.579 365.771C410.482 367.028 411.407 368.293 412.323 369.531C451.984 422.83 506.39 457.256 569.658 469.088C628.243 480.044 695.388 471.022 769.233 442.272C775.362 439.882 781.662 437.301 787.959 434.598C839.8 412.36 890.525 381.614 939.577 351.879C952.334 344.145 965.524 336.151 978.568 328.406C1010.22 309.676 1047.05 288.193 1083.6 270.257C1121.83 251.497 1156.85 238.054 1190.65 229.158C1211.93 223.511 1230.64 220.581 1247.86 220.204C1269.57 219.726 1289.53 223.406 1307.18 231.14C1322.51 237.877 1337.93 247.931 1354.33 261.878C1368.81 274.193 1382.23 287.916 1395.2 301.185C1402.72 308.873 1409.82 316.136 1416.99 323.009C1485.42 388.58 1556 459.209 1632.75 538.933L1632.55 539.088Z" fill="#3D3E40" fill-opacity="0.25"/>
<path d="M1629.72 536.837C1553.72 456.255 1484.44 384.824 1417.91 318.461C1410.87 311.435 1403.89 303.952 1396.5 296.032C1370.78 268.455 1344.18 239.939 1310.17 225.196C1278.39 211.461 1240.26 212.226 1193.62 227.533C1128.4 248.815 1070.09 284.413 1008.37 322.103C1000.68 326.797 992.736 331.649 984.827 336.44C981.731 338.321 978.632 340.207 975.535 342.09C916.721 377.864 855.905 414.857 792.108 439.095C785.659 441.548 779.177 443.878 772.843 446.019C737.512 457.952 703.141 465.547 670.686 468.591C634.343 471.999 600.03 469.719 568.708 461.814C537.967 454.054 509.022 440.694 482.677 422.106C457.141 404.089 434.089 381.203 414.161 354.08C413.253 352.84 412.337 351.571 411.436 350.311C397.637 330.98 385.433 310.391 373.627 290.481C368.847 282.417 363.902 274.079 358.935 265.963C340.121 235.181 322.878 211.041 304.662 189.995C302.242 187.199 299.744 184.394 297.232 181.652C251.549 131.797 191.944 91.7593 124.853 65.8697C44.3684 34.8968 -37.7271 25.6957 -106.307 39.9681C-176.703 54.74 -248.347 108.278 -242.461 178.407L-242.728 178.426C-244.147 161.51 -241.17 144.901 -233.877 129.058C-227.147 114.439 -216.866 100.683 -203.318 88.1744C-178.295 65.069 -142.959 47.415 -106.368 39.7363C-70.2148 32.2129 -30.6364 31.1183 11.2716 36.486C48.9583 41.3088 87.2088 51.1217 124.96 65.6498C192.088 91.5561 251.731 131.615 297.433 181.497C299.944 184.238 302.448 187.049 304.868 189.845C323.092 210.902 340.345 235.05 359.165 265.843C364.134 273.959 369.077 282.3 373.859 290.363C385.66 310.269 397.864 330.853 411.658 350.177C412.558 351.437 413.472 352.704 414.38 353.944C454.902 409.093 508.29 446.311 568.777 461.577C628.486 476.648 697.111 471.335 772.747 445.79C779.076 443.648 785.555 441.32 792.001 438.871C855.777 414.642 916.582 377.656 975.383 341.887C978.482 340.001 981.579 338.118 984.675 336.237C992.583 331.446 1000.53 326.594 1008.22 321.903C1069.96 284.205 1128.27 248.598 1193.52 227.306C1214.6 220.39 1233.31 216.511 1250.72 215.443C1272.51 214.107 1292.55 217.317 1310.28 224.979C1325.52 231.582 1340.74 241.682 1356.84 255.856C1371.04 268.362 1384.09 282.35 1396.71 295.877C1404.09 303.795 1411.07 311.275 1418.11 318.299C1484.64 384.663 1553.93 456.097 1629.92 536.682L1629.72 536.837Z" fill="#3D3E40" fill-opacity="0.25"/>
<path d="M1626.89 534.586C1557.52 459.496 1487.59 385.194 1419.03 313.749C1412.05 306.517 1405.13 298.747 1397.81 290.524C1373.99 263.771 1346.99 233.451 1313.26 219.038C1281.11 205.327 1242.92 207.499 1196.5 225.677C1141.31 247.219 1092.47 278.895 1040.76 312.43C1024.57 322.931 1007.82 333.793 990.929 344.27C961.447 362.598 929.555 381.992 896.125 399.656C860.321 418.574 827.612 432.873 796.126 443.374C789.511 445.58 782.853 447.656 776.332 449.542C740.253 459.969 704.947 465.903 671.393 467.179C634.249 468.589 599.394 464.259 567.793 454.298C509.438 435.676 458.436 396.714 416.205 338.491C415.304 337.248 414.396 335.977 413.501 334.718C400.402 316.239 388.411 296.745 376.816 277.891C371.358 269.017 365.715 259.84 360.038 250.909C340.508 220.135 322.918 196.207 304.681 175.609C302.225 172.836 299.695 170.057 297.155 167.344C250.916 117.969 190.872 78.541 123.519 53.3134C42.5138 23.0335 -39.8034 14.657 -108.271 29.7252C-179.094 45.4005 -248.943 98.2289 -245.408 168.869L-245.675 168.879C-246.522 151.958 -243.161 135.368 -235.689 119.566C-228.764 104.928 -218.424 91.1572 -204.954 78.639C-192.263 66.8449 -177.221 56.5325 -160.248 47.9863C-143.769 39.691 -126.305 33.4678 -108.337 29.491C-72.2243 21.5446 -32.6032 20.0247 9.42767 24.9789C47.2053 29.4312 85.6241 38.888 123.621 53.0911C191.014 78.3331 251.092 117.785 297.358 167.184C299.898 169.899 302.434 172.681 304.889 175.453C323.134 196.064 340.732 220.001 360.27 250.785C365.948 259.718 371.59 268.895 377.049 277.771C388.644 296.623 400.632 316.115 413.725 334.586C414.618 335.848 415.529 337.117 416.427 338.36C458.626 396.537 509.583 435.468 567.882 454.071C627.933 472.999 699.986 471.354 776.249 449.313C782.765 447.427 789.423 445.353 796.033 443.149C866.429 419.673 930.838 381.332 990.774 344.072C1007.66 333.594 1024.41 322.735 1040.6 312.234C1092.32 278.691 1141.17 247.009 1196.39 225.457C1242.88 207.251 1281.15 205.078 1313.37 218.82C1328.48 225.275 1343.48 235.394 1359.23 249.75C1373.12 262.409 1385.77 276.627 1398.01 290.373C1405.34 298.597 1412.25 306.364 1419.23 313.591C1487.79 385.039 1557.73 459.341 1627.09 534.433L1626.89 534.586Z" fill="#3D3E40" fill-opacity="0.25"/>
<path d="M1624.05 532.335C1555.75 456.829 1487.14 381.7 1420.14 309.036C1413.38 301.725 1406.67 293.82 1399.56 285.45C1376.33 258.074 1350 227.044 1316.35 212.874C1283.82 199.187 1245.56 202.767 1199.39 223.815C1151.01 245.835 1106.56 276.928 1063.58 307C1042.03 322.078 1019.74 337.669 997.033 352.097C961.189 374.892 931.031 392.28 902.121 406.823C866.473 424.754 833.117 438.109 800.151 447.649C793.384 449.609 786.544 451.43 779.825 453.062C744.815 461.563 710.436 465.865 677.547 465.867C675.72 465.867 673.903 465.853 672.087 465.827C634.063 465.272 598.669 458.863 566.886 446.779C551.546 440.915 536.523 433.47 522.237 424.651C508.809 416.363 495.614 406.601 483.017 395.636C460.353 375.91 439.167 352.116 418.253 322.9C417.355 321.643 416.46 320.383 415.57 319.119C403.435 301.881 391.955 283.861 380.854 266.434C374.445 256.375 367.819 245.972 361.145 235.846C340.598 204.648 323.192 181.629 304.701 161.212C302.214 158.466 299.651 155.713 297.079 153.027C250.279 104.142 189.8 65.3203 122.185 40.7547C40.6611 11.1703 -41.8805 3.61592 -110.235 19.48C-179.731 35.6547 -249.489 88.8846 -248.353 159.326L-248.621 159.329C-249.15 126.518 -234.613 95.3182 -206.584 69.1035C-193.915 57.2545 -178.954 46.868 -162.112 38.2262C-145.723 29.8186 -128.293 23.4328 -110.302 19.2458C-74.2319 10.874 -34.5681 8.93102 7.58572 13.4718C45.4542 17.5513 84.0439 26.6544 122.284 40.5301C189.941 65.1124 250.455 103.958 297.284 152.871C299.857 155.56 302.425 158.316 304.912 161.061C323.411 181.49 340.825 204.517 361.378 235.726C368.052 245.855 374.68 256.258 381.087 266.317C392.188 283.741 403.665 301.759 415.797 318.992C416.687 320.256 417.579 321.516 418.477 322.771C462.918 384.855 511.497 425.347 566.991 446.559C643.852 475.783 725.117 466.101 779.755 452.833C786.469 451.201 793.303 449.382 800.068 447.422C875.888 425.478 945.074 384.848 996.878 351.903C1019.58 337.48 1041.87 321.889 1063.42 306.813C1106.41 276.737 1150.87 245.635 1199.27 223.605C1219.93 214.186 1238.62 208.403 1256.43 205.927C1278.38 202.872 1298.59 205.138 1316.47 212.661C1331.53 219.007 1346.39 229.207 1361.88 243.842C1375.53 256.738 1387.86 271.261 1399.78 285.309C1406.88 293.676 1413.59 301.58 1420.34 308.885C1487.35 381.55 1555.95 456.678 1624.26 532.184L1624.05 532.335Z" fill="#3D3E40" fill-opacity="0.25"/>
<path d="M1621.22 530.083L1421.25 304.325C1414.72 296.953 1408.24 288.93 1401.37 280.438C1378.71 252.415 1353.03 220.653 1319.45 206.718C1286.98 193.244 1247.56 198.372 1202.27 221.963C1158.74 244.64 1119.04 274.798 1080.64 303.964C1055.61 322.976 1029.73 342.633 1003.14 359.933C923.217 411.932 853.369 442.645 783.325 456.59C754.268 462.373 725.604 465.284 697.805 465.284C689.378 465.284 681.037 465.016 672.785 464.481C633.864 461.957 597.929 453.473 565.984 439.268C536.377 426.1 509.291 407.511 483.189 382.436C462.344 362.414 442.363 338.544 420.308 307.315C408.667 290.834 397.396 273.711 386.495 257.151C361.825 219.678 336.316 180.928 304.734 146.825C256.291 94.5174 192.705 53.4974 120.85 28.1981C38.8103 -0.688465 -43.9558 -7.42316 -112.199 9.23673C-178.269 25.3661 -249.98 76.2276 -251.3 149.788L-251.567 149.783C-250.976 116.903 -235.986 85.7083 -208.216 59.5701C-183.108 35.9365 -149.033 17.9789 -112.268 9.00491C-76.2377 0.210133 -36.5312 -2.15824 5.74286 1.96909C43.7021 5.67341 82.463 14.4252 120.949 27.9758C156.503 40.494 190.271 56.9723 221.316 76.9541C252.62 97.1032 280.755 120.558 304.937 146.667C336.532 180.783 362.049 219.542 386.725 257.025C397.625 273.582 408.897 290.703 420.535 307.181C452.713 352.747 498.34 408.911 566.104 439.048C643.818 473.608 727.092 467.533 783.267 456.351C853.275 442.415 923.092 411.715 1002.98 359.735C1029.56 342.442 1055.44 322.785 1080.47 303.778C1118.87 274.607 1158.59 244.442 1202.14 221.752C1247.5 198.121 1287.01 192.988 1319.56 206.498C1334.6 212.738 1349.32 223.026 1364.56 237.956C1377.98 251.098 1389.98 265.941 1401.59 280.295C1408.45 288.786 1414.94 296.804 1421.46 304.175L1621.43 529.933L1621.22 530.083Z" fill="#3D3E40" fill-opacity="0.25"/>
<path d="M1619.61 512.727C1568.69 449.869 1525 398.861 1482.12 352.208C1461.31 329.545 1440.05 307.238 1418.94 285.906C1412.55 279.453 1406.22 272.589 1399.53 265.322C1382.69 247.056 1365.29 228.169 1345.26 214.152C1334.5 206.612 1324.15 201.213 1313.61 197.647C1281.25 186.594 1243.28 193.902 1200.76 219.371C1178.75 232.533 1158.71 247.51 1142.02 260.425C1124.34 274.097 1106.9 289.175 1090.03 303.756C1065.79 324.715 1040.73 346.387 1013.78 364.999C997.383 376.358 980.763 386.508 964.378 395.169C931.596 412.496 896.41 426.773 859.797 437.604C837.176 444.221 814.445 449.223 792.241 452.469C773.104 455.255 753.932 456.864 735.254 457.249C707.3 457.827 680.065 455.621 654.305 450.686C626.914 445.438 600.994 437.061 577.264 425.786C556.104 415.731 536.117 403.072 516.162 387.082C478.978 357.308 449.32 322.882 427.636 296.216C416.984 283.055 406.583 269.633 396.524 256.654C367.561 219.273 340.203 183.968 305.968 152.519C278.046 127.038 246.189 105.049 211.273 87.1582C184.441 73.4092 155.258 62.1648 124.536 53.7357C117.219 51.7306 109.762 49.8617 102.38 48.1864C70.5977 40.9857 34.8185 36.2967 -3.96098 34.2486C-43.0584 32.1359 -76.8846 33.9642 -107.366 39.8433C-124.598 43.1413 -141.294 48.3154 -156.995 55.2198C-212.427 79.5966 -248.022 120.519 -252.211 164.688L-252.545 164.662C-251.428 152.887 -248.15 141.289 -242.804 130.186C-237.725 119.639 -230.75 109.468 -222.072 99.9537C-205.676 81.9817 -183.223 66.4188 -157.142 54.9497C-141.416 48.0334 -124.694 42.8521 -107.435 39.5493C-76.922 33.6654 -43.0691 31.8348 -3.93962 33.9498C34.8612 35.998 70.6591 40.6917 102.463 47.8972C109.853 49.5749 117.312 51.4438 124.635 53.4513C155.381 61.8852 184.588 73.1392 211.441 86.9001C246.381 104.803 278.265 126.811 306.2 152.309C340.456 183.776 367.82 219.092 396.794 256.482C406.851 269.461 417.251 282.88 427.901 296.039C449.573 322.693 479.218 357.103 516.382 386.857C536.315 402.831 556.28 415.478 577.416 425.52C623.858 447.586 676.958 458.162 735.243 456.95C753.905 456.565 773.064 454.957 792.185 452.172C814.373 448.927 837.088 443.93 859.69 437.317C896.282 426.493 931.446 412.226 964.207 394.908C980.581 386.255 997.191 376.11 1013.57 364.76C1040.5 346.157 1065.56 324.49 1089.8 303.538C1106.67 288.955 1124.11 273.873 1141.79 260.195C1158.5 247.273 1178.55 232.291 1200.57 219.12C1219.5 207.78 1237.83 199.946 1255.06 195.833C1276.21 190.781 1295.95 191.297 1313.73 197.368C1324.3 200.945 1334.68 206.359 1345.46 213.915C1365.52 227.953 1382.94 246.853 1399.78 265.131C1406.48 272.396 1412.81 279.259 1419.19 285.707C1440.3 307.042 1461.56 329.351 1482.38 352.02C1525.27 398.677 1568.96 449.689 1619.88 512.553L1619.61 512.727Z" fill="#3D3E40" fill-opacity="0.25"/>
<path d="M1618 495.368C1570.79 431.446 1526.48 377.955 1482.54 331.842C1461.11 309.318 1438.93 287.665 1416.62 267.488C1410.7 262.134 1404.86 256.571 1398.67 250.682C1380.14 233.047 1360.98 214.812 1339.51 202.196C1328.68 195.798 1318.3 191.344 1307.77 188.576C1267.45 177.975 1226.5 198.059 1199.24 216.774C1179.93 229.995 1162.29 244.944 1144.42 260.375C1128.79 273.883 1114.07 288.413 1098.5 303.795C1075.38 326.628 1051.47 350.237 1024.42 370.062C1008.36 381.889 991.61 392.115 974.621 400.456C942.975 415.995 908.32 428.062 868.678 437.349C846.492 442.544 823.772 446.246 801.148 448.347C782.059 450.099 763.005 450.725 744.511 450.202C716.998 449.432 690.105 445.971 664.575 439.918C637.762 433.558 612.178 424.266 588.536 412.3C567.822 401.818 547.822 388.813 527.392 372.542C490.288 343.034 458.503 310.322 434.96 285.118C426.245 275.788 417.669 266.4 409.373 257.319C376.338 221.155 345.135 186.994 307.203 158.215C278.853 136.706 247.026 118.519 212.609 104.161C186.568 93.2961 158.967 85.1562 128.232 79.2747C121.138 77.9196 113.922 76.6984 106.786 75.6444C75.442 71.0391 41.9899 69.2969 1.51659 67.4949C-27.6582 66.1303 -65.8499 65.2317 -102.54 70.4464C-119.917 72.8698 -136.714 77.0784 -152.469 82.9503C-207.938 103.63 -245.566 139.755 -253.127 179.59L-253.522 179.53C-251.518 168.967 -247.458 158.607 -241.46 148.734C-235.742 139.328 -228.229 130.308 -219.132 121.92C-201.844 105.984 -178.846 92.3927 -152.623 82.6181C-136.839 76.7342 -120.01 72.5185 -102.604 70.0903C-65.8793 64.8684 -27.6582 65.7694 1.53528 67.134C42.0219 68.936 75.4848 70.6782 106.85 75.2859C113.992 76.3423 121.213 77.5635 128.315 78.9186C159.079 84.8072 186.707 92.9544 212.777 103.831C247.229 118.203 279.083 136.405 307.462 157.935C345.421 186.736 376.637 220.906 409.683 257.084C417.976 266.164 426.552 275.551 435.267 284.879C458.804 310.073 490.576 342.774 527.659 372.267C548.065 388.521 568.044 401.512 588.734 411.982C635.221 435.511 687.639 448.247 744.525 449.838C763.002 450.359 782.038 449.736 801.108 447.984C823.711 445.885 846.412 442.188 868.576 436.995C908.187 427.718 942.812 415.661 974.431 400.136C991.399 391.805 1008.13 381.593 1024.17 369.777C1051.2 349.97 1075.09 326.37 1098.2 303.549C1113.78 288.16 1128.5 273.627 1144.15 260.112C1162.02 244.671 1179.67 229.718 1199 216.483C1216.67 204.349 1234.1 195.621 1250.81 190.536C1271.06 184.37 1290.27 183.593 1307.88 188.225C1318.45 191.004 1328.87 195.473 1339.74 201.89C1361.24 214.53 1380.41 232.782 1398.96 250.431C1405.15 256.317 1410.99 261.879 1416.91 267.23C1439.23 287.415 1461.41 309.074 1482.85 331.606C1526.8 377.731 1571.12 431.231 1618.34 495.167L1618 495.368Z" fill="#3D3E40" fill-opacity="0.25"/>
<path d="M1616.39 478.008C1572.2 412.155 1528.56 357.682 1482.95 311.478C1460.91 289.092 1437.81 268.097 1414.3 249.071C1409.28 245.004 1404.11 240.688 1399.11 236.515C1378.45 219.274 1357.09 201.448 1333.78 190.242C1322.83 184.946 1312.41 181.433 1301.93 179.504C1261.7 172.098 1223.06 194.271 1197.73 214.174C1180.56 227.61 1164.86 242.839 1149.68 257.567L1146.84 260.325C1133.05 273.687 1120.12 288.342 1106.43 303.86C1084.64 328.569 1062.1 354.116 1035.06 375.123C1019.32 387.436 1002.44 397.739 984.862 405.745C954.221 419.704 920.12 429.665 877.552 437.093C855.54 440.934 832.83 443.333 810.052 444.222C791.01 444.937 772.074 444.578 753.762 443.152C698.324 438.852 646.526 423.935 599.804 398.814C579.606 387.955 559.592 374.607 538.622 358.002C503.134 329.962 471.571 301.14 442.286 274.022C438.359 270.387 434.474 266.776 430.619 263.193C390.622 226.033 352.844 190.933 308.446 163.917C279.461 146.28 247.665 131.898 213.946 121.167C189.19 113.29 162.361 107.942 131.93 104.816C125.072 104.115 118.096 103.539 111.196 103.104C93.835 102.029 75.4217 101.855 55.9265 101.67C40.2677 101.522 24.0773 101.369 6.99191 100.746C-26.006 99.4383 -63.4043 97.959 -97.7193 101.056C-115.425 102.655 -132.323 105.896 -147.947 110.69C-203.395 127.706 -243.059 159.04 -254.048 194.508L-254.499 194.396C-251.603 185.044 -246.762 175.922 -240.112 167.282C-233.753 159.021 -225.706 151.148 -216.195 143.885C-198.004 129.995 -174.455 118.381 -148.102 110.293C-132.443 105.487 -115.51 102.239 -97.7701 100.638C-63.4203 97.5384 -26.0034 99.0201 7.00793 100.327C24.0827 100.949 40.2731 101.104 55.9265 101.252C75.4297 101.436 93.8483 101.611 111.225 102.689C118.131 103.126 125.115 103.702 131.979 104.402C162.446 107.53 189.307 112.886 214.098 120.775C247.857 131.518 279.688 145.917 308.705 163.573C353.143 190.612 390.939 225.729 430.953 262.906C434.808 266.489 438.696 270.098 442.62 273.735C471.899 300.848 503.452 329.663 538.929 357.694C559.878 374.28 579.87 387.615 600.044 398.461C646.705 423.55 698.437 438.446 753.802 442.74C772.092 444.165 791.01 444.523 810.03 443.809C832.785 442.92 855.473 440.523 877.461 436.687C919.986 429.266 954.047 419.317 984.649 405.377C1002.19 397.388 1019.04 387.104 1034.75 374.813C1061.75 353.832 1084.28 328.298 1106.06 303.604C1119.76 288.079 1132.69 273.417 1146.49 260.046L1149.33 257.288C1164.52 242.552 1180.22 227.314 1197.41 213.864C1222.83 193.896 1261.61 171.658 1302.02 179.098C1312.55 181.036 1323.01 184.561 1334 189.879C1357.36 201.109 1378.75 218.954 1399.42 236.214C1404.42 240.387 1409.59 244.703 1414.61 248.768C1438.13 267.803 1461.24 288.81 1483.3 311.208C1528.92 357.431 1572.58 411.923 1616.78 477.798L1616.39 478.008Z" fill="#3D3E40" fill-opacity="0.25"/>
<path d="M1614.77 460.645C1574.21 393.798 1530 336.758 1483.37 291.116C1460.71 268.871 1436.69 248.531 1411.99 230.66C1408.43 228.079 1404.78 225.399 1401.24 222.809C1377.9 205.695 1353.76 187.995 1328.05 178.292C1317.01 174.084 1306.57 171.515 1296.11 170.434C1255.99 166.295 1219.64 190.521 1196.22 211.574C1181.67 224.58 1168.54 239.043 1155.84 253.031C1153.64 255.452 1151.45 257.868 1149.25 260.275C1137.17 273.496 1125.88 288.265 1113.92 303.9C1093.59 330.48 1072.58 357.964 1045.7 380.19C1029.91 393.241 1013.37 403.331 995.102 411.041C956.902 427.165 918.727 433.133 886.423 436.847C864.574 439.356 841.876 440.456 818.953 440.107C799.97 439.784 781.148 438.439 763.013 436.111C709.24 429.225 658.12 412.143 611.074 385.335C591.499 374.184 571.475 360.49 549.853 343.472C528.012 326.322 507.659 309.82 487.974 293.86C474.597 283.012 461.96 272.767 449.619 262.937C402.971 225.779 360.243 193.11 309.698 169.627C280.09 155.873 248.326 145.291 215.288 138.176C191.609 133.076 166.298 130.593 135.635 130.356C129.02 130.313 122.282 130.382 115.61 130.564C105.477 130.858 94.993 131.472 83.8975 132.125C62.6042 133.375 38.4655 134.792 12.4647 133.998C2.56345 133.695 -7.53818 133.267 -17.3085 132.851C-42.4384 131.783 -68.4232 130.679 -92.9038 131.666C-110.882 132.392 -127.884 134.667 -143.433 138.429C-198.788 151.824 -240.485 178.369 -254.976 209.435L-255.47 209.251C-251.677 201.116 -246.055 193.234 -238.764 185.823C-231.762 178.706 -223.18 171.983 -213.263 165.844C-194.153 154.014 -170.057 144.375 -143.578 137.968C-127.991 134.197 -110.951 131.914 -92.9332 131.188C-68.4259 130.198 -42.4304 131.305 -17.2872 132.373C-7.51947 132.789 2.58215 133.217 12.4807 133.52C38.4575 134.314 62.5775 132.899 83.8601 131.649C94.961 130.997 105.447 130.382 115.592 130.088C122.271 129.907 129.014 129.838 135.637 129.881C166.343 130.115 191.692 132.605 215.411 137.712C248.489 144.836 280.296 155.431 309.941 169.204C332.773 179.81 355.91 193.248 380.674 210.283C402.843 225.533 424.409 242.219 449.972 262.581C462.312 272.413 474.949 282.659 488.329 293.506C508.011 309.464 528.364 325.966 550.2 343.113C571.8 360.115 591.803 373.795 611.355 384.934C658.336 411.705 709.384 428.764 763.082 435.64C781.196 437.965 799.994 439.308 818.955 439.631C841.852 439.98 864.526 438.883 886.349 436.374C918.612 432.667 956.737 426.707 994.87 410.611C1013.08 402.922 1029.59 392.859 1045.33 379.841C1072.16 357.653 1093.16 330.191 1113.47 303.632C1125.44 287.988 1136.74 273.211 1148.83 259.976C1151.03 257.57 1153.22 255.154 1155.42 252.735C1168.12 238.737 1181.26 224.264 1195.83 211.242C1211.07 197.545 1226.71 187.008 1242.31 179.925C1260.78 171.534 1278.9 168.183 1296.16 169.966C1306.67 171.051 1317.17 173.632 1328.25 177.857C1354.03 187.587 1378.19 205.308 1401.57 222.443C1405.1 225.034 1408.75 227.713 1412.32 230.292C1437.03 248.177 1461.07 268.537 1483.75 290.799C1508.51 315.034 1532.75 342.647 1555.81 372.87C1576.19 399.581 1596.18 429.039 1615.23 460.421L1614.77 460.645Z" fill="#3D3E40" fill-opacity="0.25"/>
<path d="M1613.16 443.278C1575.61 374.514 1532.09 316.468 1483.79 270.752C1460.51 248.648 1435.57 228.965 1409.69 212.245C1408.46 211.449 1407.23 210.654 1405.99 209.855C1379.07 192.447 1351.24 174.447 1322.33 166.343C1311.13 163.202 1300.65 161.575 1290.29 161.365C1250.34 160.557 1216.26 186.807 1194.71 208.969C1182.03 221.934 1170.78 236.144 1159.89 249.886C1157.2 253.284 1154.42 256.797 1151.67 260.22C1141.21 273.254 1131.48 288.074 1121.18 303.766C1102.45 332.308 1083.09 361.821 1056.35 385.251C1040.88 398.807 1024.2 408.973 1005.35 416.334C968.214 430.834 930.509 434.641 895.296 436.596C873.583 437.8 850.893 437.595 827.855 435.986C808.934 434.624 790.232 432.294 772.265 429.063C720.322 419.742 669.881 400.494 622.349 371.851C603.313 360.382 583.847 346.745 561.092 328.936C517.846 295.181 485.732 271.407 456.969 251.85C399.76 212.955 356.097 190.072 310.975 175.336C280.766 165.47 249.034 158.69 216.656 155.182C194.193 152.749 170.353 152.966 139.362 155.894C133.011 156.501 126.514 157.216 120.048 158.021C113.941 158.793 107.737 159.677 101.167 160.612C76.911 164.065 49.4167 167.98 17.9497 167.248C1.36386 166.864 -15.5773 165.81 -31.9601 164.792C-50.579 163.635 -69.8312 162.438 -88.0841 162.275C-106.385 162.113 -123.492 163.422 -138.916 166.171C-194.086 175.995 -237.821 197.755 -255.906 224.376L-256.419 224.097C-251.722 217.18 -245.321 210.539 -237.394 204.356C-229.742 198.386 -220.632 192.815 -210.314 187.794C-190.271 178.039 -165.622 170.377 -139.033 165.642C-123.567 162.889 -106.423 161.575 -88.0788 161.737C-69.8098 161.9 -50.547 163.097 -31.92 164.256C-15.5426 165.274 1.39053 166.328 17.963 166.713C49.374 167.442 76.8389 163.532 101.068 160.084C107.641 159.147 113.85 158.265 119.96 157.491C126.433 156.685 132.936 155.971 139.292 155.361C170.332 152.431 194.211 152.211 216.723 154.651C249.147 158.164 280.924 164.954 311.175 174.834C356.359 189.589 400.067 212.496 457.327 251.425C486.101 270.989 518.225 294.77 561.482 328.535C584.221 346.33 603.666 359.952 622.68 371.409C670.148 400.011 720.514 419.233 772.38 428.539C790.323 431.766 809.003 434.091 827.897 435.453C850.909 437.059 873.57 437.265 895.256 436.063C930.415 434.11 968.057 430.313 1005.1 415.847C1023.88 408.514 1040.51 398.381 1055.92 384.874C1082.6 361.493 1101.95 332.012 1120.66 303.501C1130.97 287.799 1140.7 272.967 1151.18 259.914C1153.93 256.494 1156.71 252.981 1159.4 249.582C1170.29 235.829 1181.56 221.609 1194.26 208.622C1208.32 194.159 1223.06 182.718 1238.07 174.616C1255.66 165.126 1273.23 160.492 1290.3 160.834C1300.72 161.044 1311.26 162.681 1322.51 165.836C1351.51 173.969 1379.39 191.993 1406.34 209.428C1407.58 210.226 1408.81 211.024 1410.04 211.817C1435.95 228.556 1460.92 248.263 1484.23 270.391C1532.56 316.148 1576.12 374.239 1613.7 443.051L1613.16 443.278Z" fill="#3D3E40" fill-opacity="0.25"/>
<path d="M908.59 436.348C907.091 436.348 905.614 436.346 904.161 436.338C882.56 436.257 859.878 434.752 836.749 431.86C817.897 429.458 799.313 426.143 781.512 422.011C756.077 416.118 730.552 407.648 705.639 396.838C681.58 386.399 657.351 373.456 633.621 358.364C610.369 343.577 588.651 327.102 572.327 314.399C534.133 284.76 497.792 259.986 464.316 240.765C410.097 209.634 361.78 190.656 312.255 181.041C282.377 175.241 250.323 172.182 219.459 172.182C218.981 172.182 218.505 172.182 218.027 172.184C191.513 172.266 166.341 176.673 143.092 181.424C137.041 182.669 130.781 184.029 124.486 185.47C121.037 186.268 117.583 187.09 113.928 187.96C88.1487 194.104 58.9285 201.066 23.4299 200.495C1.81064 200.146 -20.2708 198.143 -41.6256 196.205C-55.4142 194.953 -69.6702 193.66 -83.2691 192.878C-101.963 191.805 -119.166 192.15 -134.405 193.906C-189.281 200.225 -235.055 217.203 -256.854 239.323L-257.356 238.929C-246.175 227.584 -229.357 217.762 -207.369 209.732C-186.369 202.065 -161.167 196.387 -134.491 193.316C-119.211 191.557 -101.963 191.208 -83.2264 192.286C-69.6141 193.067 -55.35 194.363 -41.5561 195.615C-20.2147 197.553 1.85336 199.556 23.4432 199.902C58.851 200.474 88.0205 193.521 113.757 187.389C117.414 186.517 120.869 185.694 124.321 184.896C130.62 183.455 136.886 182.093 142.942 180.848C166.231 176.09 191.447 171.675 218.025 171.592C249.379 171.494 282.009 174.562 312.396 180.463C337.956 185.427 362.736 192.733 388.147 202.799C412.619 212.495 437.653 224.75 464.674 240.267C498.177 259.504 534.544 284.296 572.763 313.955C589.073 326.65 610.775 343.114 634.003 357.883C682.155 388.507 731.84 409.89 781.677 421.44C799.455 425.567 818.015 428.877 836.84 431.277C859.939 434.164 882.589 435.669 904.161 435.748C937.915 435.872 977.108 434.854 1015.33 421.077C1034.68 414.103 1051.42 403.905 1066.51 389.903C1093 365.311 1110.57 333.748 1127.56 303.222C1136.3 287.52 1144.55 272.689 1153.52 259.85C1156.4 255.737 1159.3 251.5 1162.1 247.401C1171.58 233.554 1181.38 219.239 1192.67 206.006C1205.58 190.783 1219.42 178.434 1233.83 169.305C1250.53 158.72 1267.55 152.798 1284.43 151.703C1294.85 151.027 1305.42 151.718 1316.75 153.816C1347.05 159.423 1377.08 175.712 1407.74 193.342C1434.48 208.714 1461.08 228.299 1484.69 249.982C1510.91 273.998 1535.54 302.173 1557.91 333.722C1577.83 361.829 1596.08 392.768 1612.15 425.682L1611.54 425.921C1577.03 355.238 1534.19 296.184 1484.21 250.401C1460.64 228.748 1434.08 209.192 1407.38 193.846C1376.78 176.247 1346.8 159.989 1316.61 154.401C1305.34 152.315 1294.83 151.629 1284.48 152.301C1253.47 154.315 1221.05 173.516 1193.2 206.369C1181.94 219.578 1172.14 233.882 1162.67 247.714C1159.87 251.815 1156.96 256.055 1154.09 260.168C1145.13 272.983 1136.88 287.802 1128.15 303.489C1119.82 318.467 1111.2 333.956 1101.31 348.845C1090.1 365.724 1078.87 379.289 1066.99 390.319C1051.84 404.383 1035.03 414.626 1015.59 421.633C998.442 427.814 980.015 431.898 959.253 434.125C941.671 436.001 924.011 436.348 908.59 436.348Z" fill="#3D3E40" fill-opacity="0.25"/>
<path d="M951.434 437.545C937.811 437.545 924.725 436.818 913.018 436.082C891.492 434.729 868.82 431.921 845.635 427.734C826.864 424.295 808.397 419.998 790.748 414.958C742.42 401.185 694.706 378.259 644.882 344.875C623.153 330.318 602.669 314.655 583.556 299.861C545.821 270.74 508.177 247.128 471.664 229.677C417.963 204.012 367.719 190.369 313.543 186.741C282.674 184.673 250.122 185.517 219.403 189.178C193.691 192.242 169.451 199.637 146.822 206.945C141.16 208.783 135.138 210.79 128.927 212.91C127.374 213.443 125.809 213.985 124.222 214.533C98.1596 223.547 68.6696 233.747 30.8225 233.747C30.184 233.747 29.5482 233.745 28.9043 233.738C3.29886 233.506 -22.8436 230.237 -48.1284 227.072C-58.1525 225.818 -68.5186 224.522 -78.4653 223.473C-97.8938 221.427 -114.72 220.823 -129.909 221.631C-185.151 224.57 -231.78 236.462 -257.834 254.265L-258.28 253.741C-245.4 244.942 -226.776 237.301 -204.427 231.647C-182.445 226.085 -156.692 222.395 -129.954 220.973C-114.723 220.163 -97.8537 220.768 -78.3825 222.818C-68.4251 223.868 -58.0563 225.165 -48.0295 226.418C-22.7688 229.577 3.34964 232.844 28.907 233.076C67.5421 233.429 97.5131 223.06 123.952 213.914C125.536 213.366 127.105 212.824 128.657 212.289C134.874 210.166 140.899 208.159 146.565 206.321C169.232 198.998 193.517 191.595 219.299 188.521C250.066 184.855 282.671 184.009 313.591 186.079C340.438 187.876 366.036 192.12 391.844 199.051C418.425 206.19 444.645 216.014 472.003 229.092C508.562 246.567 546.254 270.207 584.029 299.357C603.134 314.145 623.605 329.799 645.315 344.342C695.072 377.681 742.714 400.573 790.964 414.325C808.587 419.355 827.029 423.648 845.774 427.082C868.927 431.264 891.567 434.07 913.06 435.418C949.23 437.688 987.707 438.854 1025.56 426.291C1045.48 419.678 1062.33 409.416 1077.09 394.916C1103.37 369.089 1119.73 333.86 1134.16 302.777C1141.43 287.137 1148.29 272.365 1155.85 259.773C1158.59 255.23 1161.33 250.534 1163.99 245.993C1172.31 231.785 1180.9 217.095 1191.08 203.374C1202.85 187.391 1215.81 174.134 1229.58 163.972C1245.39 152.302 1261.87 145.095 1278.54 142.554C1288.97 140.965 1299.58 140.712 1310.98 141.773C1342.84 144.743 1375.21 159.422 1405.44 174.844C1433.36 189.083 1460.92 208.001 1485.14 229.553C1512.09 253.457 1536.92 281.913 1558.94 314.126C1578.63 342.934 1596.01 374.614 1610.6 408.293L1609.92 408.529C1578.91 336.943 1535.58 275.214 1484.63 230.017C1460.45 208.505 1432.94 189.623 1405.08 175.413C1374.92 160.027 1342.63 145.384 1310.91 142.425C1299.57 141.369 1289.03 141.622 1278.67 143.199C1247.88 147.891 1217 169.388 1191.7 203.733C1181.54 217.424 1172.95 232.101 1164.65 246.294C1161.99 250.837 1159.24 255.534 1156.51 260.081C1148.95 272.645 1142.1 287.403 1134.84 303.025C1120.39 334.156 1104 369.443 1077.63 395.356C1062.79 409.934 1045.85 420.254 1025.82 426.905C1008.43 432.674 989.684 436.015 968.49 437.112C962.759 437.423 957.052 437.545 951.434 437.545Z" fill="#3D3E40" fill-opacity="0.25"/>
<path d="M978.323 440.134C978.128 440.134 977.936 440.134 977.741 440.134C958.489 440.091 939.586 437.983 921.873 435.827C900.379 433.212 877.721 429.099 854.523 423.608C835.837 419.136 817.488 413.852 799.988 407.906C753.592 392.164 707.887 367.852 656.15 331.389C637.518 318.261 619.182 304.125 601.447 290.457C599.23 288.746 597.01 287.038 594.79 285.329C556.86 256.215 517.909 233.762 479.023 218.596C425.774 197.83 372.07 189.275 314.843 192.441C283.464 194.179 250.941 198.927 220.791 206.173C197.003 211.892 175.806 221.067 150.564 232.467C145.447 234.788 139.984 237.292 133.374 240.351L133.005 240.523C120.253 246.464 105.8 253.197 89.5878 258.316C70.9689 264.195 52.9056 267.025 34.3829 266.991C5.4993 266.927 -23.9774 262.118 -52.4816 257.465C-59.4653 256.325 -66.6896 255.147 -73.6627 254.081C-93.6602 251.029 -110.588 249.488 -125.413 249.371C-180.001 248.94 -228.631 256.177 -258.832 269.221L-259.179 268.576C-244.386 262.185 -224.431 256.999 -201.473 253.577C-178.473 250.147 -152.167 248.446 -125.405 248.656C-110.537 248.773 -93.5667 250.317 -73.5264 253.376C-66.548 254.442 -59.3237 255.62 -52.3373 256.76C-23.8678 261.406 5.57144 266.21 34.3855 266.274C34.5138 266.274 34.6447 266.274 34.7729 266.274C75.989 266.274 107.389 251.648 132.637 239.888L133.008 239.715C139.62 236.654 145.084 234.149 150.203 231.829C175.488 220.41 196.722 211.218 220.586 205.483C250.786 198.222 283.362 193.466 314.795 191.727C342.799 190.178 369.214 191.359 395.554 195.34C423.938 199.63 451.347 207.022 479.344 217.941C518.305 233.136 557.322 255.625 595.313 284.786C597.533 286.495 599.754 288.206 601.971 289.917C619.698 303.58 638.028 317.712 656.644 330.83C708.315 367.247 753.952 391.526 800.271 407.242C817.747 413.18 836.069 418.455 854.728 422.922C877.895 428.406 900.521 432.512 921.98 435.122C960.417 439.801 998.048 443.047 1035.8 431.537C1056.29 425.29 1073.26 414.963 1087.68 399.964C1113.72 372.87 1127.95 335.328 1140.51 302.201C1146.39 286.693 1151.94 272.043 1158.2 259.733C1160.61 254.996 1163.03 250.097 1165.37 245.358C1172.68 230.541 1180.24 215.222 1189.5 200.777C1200.17 184.026 1212.23 169.859 1225.34 158.67C1240.28 145.917 1256.2 137.428 1272.66 133.442C1282.87 130.971 1293.29 129.766 1304.48 129.766C1304.73 129.766 1304.97 129.766 1305.22 129.769C1340.02 129.931 1375.83 144.075 1403.15 156.378C1432.24 169.486 1460.76 187.735 1485.61 209.154C1513.29 232.947 1538.32 261.683 1559.99 294.566C1579.44 324.074 1595.95 356.497 1609.07 390.94L1608.31 391.172C1588.79 339.923 1551.56 266.836 1485.05 209.672C1460.26 188.302 1431.81 170.096 1402.79 157.018C1375.55 144.749 1339.85 130.646 1305.21 130.486C1293.81 130.426 1283.24 131.626 1272.88 134.135C1242.37 141.522 1213.01 165.316 1190.2 201.133C1180.95 215.544 1173.4 230.847 1166.1 245.647C1163.76 250.389 1161.34 255.29 1158.93 260.029C1152.69 272.309 1147.14 286.94 1141.27 302.431C1128.69 335.617 1114.43 373.231 1088.28 400.43C1073.77 415.53 1056.68 425.926 1036.06 432.214C1018.58 437.541 999.683 440.134 978.323 440.134Z" fill="#3D3E40" fill-opacity="0.25"/>
<path d="M999.707 443.498C995.56 443.498 991.323 443.379 986.984 443.14C967.994 442.095 949.538 438.962 930.729 435.568C908.925 431.635 886.905 426.372 863.411 419.48C844.821 413.978 826.592 407.712 809.229 400.851C765.181 383.471 721.445 357.888 667.421 317.9C654.004 307.97 640.592 297.555 627.621 287.482C620.56 281.999 613.261 276.328 606.029 270.791C567.647 241.481 527.396 220.192 486.391 207.511C432.212 190.756 376.528 187.687 316.154 198.131C284.256 203.649 251.763 212.303 222.191 223.156C198.434 231.874 177.739 244.117 155.829 257.08L154.314 257.976C150.891 260.008 147.432 262.068 143.929 264.152C141.912 265.354 139.881 266.563 137.832 267.782C125.056 275.422 111.257 283.393 95.4326 289.527C77.0595 296.649 58.8867 300.153 39.8696 300.239C8.21017 300.378 -24.0824 293.796 -55.3091 287.424C-59.7654 286.514 -64.3767 285.575 -68.8518 284.683C-89.8325 280.501 -106.373 278.094 -120.912 277.105C-174.565 273.455 -225.199 276.027 -259.834 284.162L-260.056 283.412C-225.33 275.255 -174.592 272.674 -120.845 276.33C-106.266 277.322 -89.6829 279.736 -68.6621 283.926C-64.1844 284.819 -59.5731 285.759 -55.114 286.669C-24.2695 292.962 7.61441 299.465 38.8544 299.465C39.191 299.465 39.5277 299.465 39.867 299.462C80.2735 299.281 109.037 284.067 137.354 267.137C139.403 265.918 141.434 264.708 143.451 263.506C146.953 261.42 150.411 259.362 153.836 257.328L155.35 256.432C177.298 243.448 198.028 231.183 221.862 222.436C251.488 211.562 284.037 202.894 315.991 197.366C376.518 186.896 432.351 189.974 486.677 206.775C527.783 219.489 568.128 240.826 606.595 270.2C613.827 275.74 621.129 281.409 628.19 286.894C641.156 296.965 654.565 307.377 667.974 317.3C721.934 357.242 765.608 382.79 809.579 400.141C826.918 406.99 845.12 413.249 863.683 418.741C887.143 425.624 909.131 430.88 930.903 434.806C963.951 440.769 1005.08 448.192 1046.04 436.759C1067.1 430.882 1084.18 420.491 1098.26 404.99C1124.06 376.598 1136.02 336.666 1146.58 301.436C1151.16 286.131 1155.49 271.675 1160.55 259.678C1162.52 255.003 1164.49 250.168 1166.4 245.491C1172.8 229.807 1179.42 213.589 1187.92 198.165C1197.51 180.635 1208.67 165.557 1221.09 153.349C1235.17 139.517 1250.54 129.749 1266.78 124.317C1277.21 120.83 1287.89 118.682 1299.45 117.747C1314.92 116.495 1331.39 117.833 1349.8 121.829C1365.38 125.213 1382.07 130.466 1400.85 137.892C1431.13 149.867 1460.6 167.45 1486.07 188.736C1514.49 212.418 1539.72 241.438 1561.04 274.987C1580.24 305.198 1595.88 338.365 1607.53 373.57L1606.7 373.79C1582.1 299.465 1539.05 233.946 1485.48 189.305C1460.08 168.076 1430.69 150.544 1400.5 138.604C1360.04 122.606 1327.96 116.223 1299.53 118.522C1288.05 119.449 1277.44 121.583 1267.09 125.044C1228.44 137.966 1203.13 172.127 1188.7 198.506C1180.22 213.892 1173.61 230.091 1167.22 245.757C1165.31 250.436 1163.33 255.273 1161.36 259.95C1156.32 271.912 1152 286.351 1147.42 301.637C1136.84 336.943 1124.85 376.959 1098.94 405.48C1084.74 421.103 1067.52 431.577 1046.3 437.502C1031.91 441.517 1016.57 443.498 999.707 443.498Z" fill="#3D3E40" fill-opacity="0.25"/>
<path d="M1018.23 447.355C989.978 447.355 962.815 440.862 939.577 435.308C917.715 430.083 895.705 423.554 872.291 415.35C853.805 408.825 835.694 401.575 818.462 393.795C766.805 370.504 720.753 337.072 678.684 304.411C670.095 297.744 661.417 290.87 653.028 284.224C641.38 274.994 629.333 265.452 617.262 256.255C578.307 226.657 536.754 206.527 493.761 196.424C438.145 183.359 380.476 185.775 317.462 203.814C285.017 213.101 252.556 225.66 223.587 240.133C201.244 251.294 182.339 265.385 162.325 280.302C160.907 281.359 159.485 282.42 158.056 283.481L157.281 284.059C152.416 287.689 147.385 291.441 142.285 295.208C130.065 304.273 116.608 313.648 101.042 320.811C82.9738 329.125 64.7582 333.272 45.3484 333.487C11.2791 333.867 -23.4447 325.299 -57.0225 317.013C-59.3762 316.432 -61.7193 315.854 -64.0517 315.283C-86.1946 309.848 -102.348 306.627 -116.422 304.834C-168.728 298.176 -221.371 296.083 -260.853 299.092L-260.933 298.257C-221.387 295.241 -168.667 297.337 -116.291 304.005C-102.177 305.802 -85.9888 309.031 -63.8058 314.475C-61.4735 315.046 -59.1304 315.625 -56.774 316.208C-23.2604 324.477 11.3967 333.023 45.3351 332.65C87.4863 332.182 117.171 312.745 141.687 294.563C146.787 290.796 151.818 287.044 156.683 283.416L157.458 282.838C158.887 281.774 160.308 280.716 161.727 279.659C181.775 264.715 200.712 250.601 223.13 239.402C252.153 224.902 284.675 212.322 317.176 203.018C347.051 194.467 375.112 189.53 402.959 187.924C434.022 186.134 464.651 188.722 493.996 195.617C537.125 205.75 578.801 225.937 617.866 255.617C629.945 264.818 641.994 274.363 653.645 283.596C662.035 290.242 670.707 297.113 679.294 303.778C721.319 336.402 767.315 369.799 818.878 393.047C836.087 400.814 854.171 408.056 872.63 414.571C896.01 422.763 917.984 429.283 939.815 434.5C973.334 442.511 1015.05 452.481 1056.27 441.99C1077.9 436.484 1095.09 426.028 1108.84 410.025C1134.37 380.297 1143.92 337.908 1152.35 300.506C1155.74 285.479 1158.94 271.285 1162.88 259.63C1164.34 255.318 1165.8 250.864 1167.22 246.555C1172.76 229.701 1178.49 212.272 1186.33 195.559C1194.85 177.236 1205.12 161.243 1216.83 148.029C1230.04 133.119 1244.86 122.073 1260.88 115.197C1271.29 110.733 1282.01 107.638 1293.66 105.733C1309.36 103.169 1326.78 103.255 1345.44 105.989C1361.77 108.384 1379.64 112.898 1398.53 119.41C1430 130.253 1460.42 147.167 1486.52 168.322C1515.68 191.893 1541.1 221.193 1562.07 255.412C1581.02 286.325 1595.79 320.237 1605.98 356.205L1605.07 356.41C1583.49 280.197 1541.17 213.62 1485.9 168.943C1459.88 147.857 1429.56 130.999 1398.2 120.192C1357.56 106.185 1323.42 101.723 1293.83 106.558C1282.26 108.448 1271.62 111.521 1261.29 115.952C1223.17 132.311 1199.96 168.446 1187.19 195.882C1179.37 212.551 1173.65 229.957 1168.12 246.789C1166.7 251.098 1165.24 255.555 1163.78 259.871C1159.85 271.488 1156.65 285.663 1153.27 300.671C1149.21 318.665 1144.62 339.058 1137.95 358.177C1130.3 380.082 1121.02 397.208 1109.58 410.534C1102.96 418.239 1095.36 424.797 1086.98 430.026C1077.96 435.649 1067.72 439.946 1056.52 442.795C1043.72 446.057 1030.86 447.355 1018.23 447.355Z" fill="#3D3E40" fill-opacity="0.25"/>
<path d="M1034.93 451.588C1025.59 451.588 1015.8 450.775 1005.47 449.152C985.108 445.957 965.62 440.159 948.426 435.047C926.753 428.602 904.124 420.584 881.171 411.218C862.803 403.68 844.81 395.445 827.695 386.736C778.571 361.769 736.249 328.571 689.948 290.921C685.834 287.575 681.655 284.162 677.616 280.859C661.706 267.861 645.256 254.42 628.497 241.72C588.894 211.775 546.043 192.806 501.132 185.34C444.482 175.922 383.124 184.047 318.771 209.495C285.749 222.553 253.318 239.015 224.984 257.104C203.651 270.724 186.09 286.781 167.498 303.783C165.609 305.511 163.712 307.243 161.804 308.983C157.057 313.319 151.943 317.972 146.741 322.63C135.833 332.43 122.539 343.598 106.655 352.09C88.8754 361.597 70.6145 366.388 50.8333 366.735C14.6213 367.373 -22.2399 356.647 -57.8882 346.275L-59.2454 345.881C-76.6995 340.805 -95.1635 335.676 -111.926 332.562C-163.019 323.072 -216.268 316.483 -261.861 314.009L-261.799 313.115C-216.159 315.591 -162.861 322.185 -111.723 331.685C-94.9124 334.808 -76.4163 339.944 -58.9355 345.028L-57.5783 345.422C-22.0075 355.77 14.779 366.47 50.8146 365.836C92.4315 365.105 121.173 344.332 146.033 321.991C151.235 317.336 156.343 312.683 161.091 308.35C162.999 306.613 164.896 304.877 166.784 303.152C185.409 286.122 203.002 270.035 224.405 256.37C252.791 238.245 285.284 221.753 318.368 208.67C348.56 196.733 378.272 188.507 406.672 184.224C439.122 179.332 470.966 179.409 501.319 184.454C546.401 191.948 589.41 210.984 629.146 241.032C645.919 253.744 662.376 267.189 678.294 280.195C682.334 283.495 686.512 286.908 690.627 290.254C736.882 327.868 779.158 361.03 828.195 385.954C845.285 394.649 863.252 402.872 881.593 410.4C904.514 419.752 927.106 427.758 948.746 434.194C982.669 444.284 1024.89 456.838 1066.52 447.219C1088.72 442.088 1106.03 431.57 1119.43 415.061C1144.68 383.956 1151.99 337.074 1157.86 299.402C1160.15 284.728 1162.3 270.869 1165.23 259.589C1166.15 256.033 1167.09 252.369 1167.99 248.825C1172.66 230.413 1177.5 211.373 1184.75 192.962C1195.96 164.309 1217.24 125.98 1255 106.089C1265.43 100.597 1276.19 96.5537 1287.89 93.7288C1318.51 86.2317 1354.96 88.6575 1396.24 100.934C1428.88 110.644 1460.26 126.888 1486.99 147.912C1516.89 171.371 1542.5 200.953 1563.12 235.843C1572.58 251.846 1580.94 268.938 1587.98 286.645C1594.69 303.558 1600.23 321.122 1604.45 338.847L1603.47 339.034C1584.91 260.927 1543.31 193.291 1486.33 148.584C1459.7 127.639 1428.44 111.457 1395.92 101.783C1354.84 89.5608 1318.58 87.1423 1288.15 94.5916C1276.54 97.3949 1265.86 101.407 1255.51 106.859C1218 126.611 1196.85 164.744 1185.7 193.256C1178.46 211.619 1173.64 230.633 1168.96 249.021C1168.06 252.565 1167.13 256.231 1166.21 259.79C1163.29 271.032 1161.13 284.872 1158.85 299.524C1155.9 318.481 1152.55 339.966 1146.82 360.244C1140.25 383.545 1131.55 401.649 1120.24 415.586C1113.78 423.538 1106.23 430.244 1097.8 435.516C1088.72 441.196 1078.27 445.427 1066.77 448.084C1056.66 450.421 1046.11 451.588 1034.93 451.588Z" fill="#3D3E40" fill-opacity="0.25"/>
<path d="M1050.32 456.057C1039.12 456.057 1027.32 454.759 1014.71 452.157C994.274 447.943 974.616 440.951 957.271 434.78C935.435 427.013 912.82 417.695 890.051 407.081C871.804 398.537 853.93 389.317 836.928 379.674C790.141 353.158 750.013 318.983 707.527 282.805C705.425 281.015 703.322 279.222 701.214 277.43C681.457 260.624 661.029 243.245 639.733 227.185C599.442 196.86 555.292 179.05 508.511 174.251C449.75 168.222 386.354 181.99 320.08 215.169C286.93 231.764 253.654 252.683 226.381 274.07C205.788 290.218 189.272 308.388 171.785 327.627C169.715 329.905 167.639 332.189 165.547 334.479C161.369 339.06 156.397 344.492 151.192 350.049C141.553 360.366 128.419 373.477 112.266 383.34C94.7689 394.025 76.4678 399.472 56.3153 399.985C39.7509 400.356 21.4713 398.069 0.429047 392.99C-17.6369 388.631 -35.1123 382.934 -54.45 376.481C-72.1018 370.518 -90.7314 364.359 -107.445 360.292C-156.954 348.242 -209.25 337.691 -262.876 328.925L-262.684 327.985C-209.026 336.754 -156.701 347.315 -107.165 359.369C-90.4055 363.449 -71.7491 369.617 -54.0759 375.585C-21.6631 386.404 18.6767 399.873 56.2859 399.03C99.284 397.93 126.917 374.543 150.372 349.432C155.574 343.881 160.543 338.451 164.719 333.872C166.811 331.582 168.887 329.297 170.955 327.022C188.47 307.753 205.016 289.551 225.676 273.35C253.005 251.92 286.345 230.961 319.559 214.334C386.033 181.055 449.649 167.251 508.634 173.303C531.25 175.623 553.465 181.012 574.657 189.32C597.395 198.231 619.522 210.728 640.423 226.456C661.743 242.533 682.184 259.922 701.952 276.739C704.06 278.534 706.165 280.324 708.267 282.114C750.713 318.261 790.806 352.403 837.502 378.868C854.481 388.497 872.328 397.706 890.548 406.235C913.284 416.832 935.866 426.138 957.669 433.893C991.936 446.082 1034.58 461.25 1076.75 452.453C1099.6 447.688 1117.02 437.105 1130.01 420.104C1155.03 387.63 1159.49 338.023 1163.07 298.164C1164.36 283.909 1165.57 270.444 1167.57 259.556C1167.99 257.309 1168.4 255.051 1168.81 252.781C1172.56 232.273 1176.43 211.065 1183.17 190.369C1192.78 160.6 1212.02 120.235 1249.11 96.9864C1259.45 90.5002 1270.25 85.5101 1282.11 81.7293C1298.59 76.4262 1316.97 73.9335 1336.71 74.3159C1354.74 74.6648 1373.99 77.406 1393.93 82.4606C1427.74 91.0332 1460.08 106.608 1487.44 127.5C1518.08 150.845 1543.89 180.714 1564.16 216.273C1573.47 232.588 1581.52 250.032 1588.1 268.119C1594.41 285.441 1599.39 303.398 1602.9 321.492L1601.85 321.655C1586.55 242.81 1544.6 172.308 1486.75 128.227C1459.5 107.425 1427.31 91.915 1393.63 83.376C1352.11 72.8461 1313.67 72.588 1282.46 82.6256C1270.69 86.3777 1259.98 91.3295 1249.72 97.7655C1212.89 120.854 1193.76 161.011 1184.19 190.632C1177.48 211.273 1173.61 232.45 1169.87 252.931C1169.45 255.202 1169.04 257.462 1168.63 259.709C1166.62 270.557 1165.42 284.004 1164.14 298.239C1160.54 338.212 1156.07 387.962 1130.89 420.644C1124.63 428.839 1117.14 435.698 1108.63 441.025C1099.48 446.756 1088.84 450.914 1077 453.385C1068.45 455.163 1059.59 456.057 1050.32 456.057Z" fill="#3D3E40" fill-opacity="0.25"/>
<path d="M1064.78 460.711C1052.02 460.711 1038.51 458.866 1023.95 455.162C1003.34 449.921 983.562 441.735 966.113 434.515C944.061 425.391 921.456 414.768 898.926 402.947C880.809 393.412 863.056 383.204 846.155 372.615C804.538 346.546 768.97 314.61 731.312 280.798C725.157 275.27 718.79 269.556 712.474 263.937C690.273 244.197 671.314 227.919 650.964 212.65C609.954 181.924 564.508 165.273 515.886 163.161C454.79 160.505 389.347 179.911 321.38 220.838C287.615 241.171 254.369 266.098 227.767 291.029C207.726 309.811 192.06 330.257 175.474 351.902C173.419 354.583 171.357 357.274 169.281 359.968C165.583 364.774 160.689 371.107 155.637 377.457C134.375 404.243 106.598 431.82 61.791 433.23C60.3937 433.27 58.9911 433.289 57.5912 433.289C22.6028 433.289 -13.1176 420.903 -49.6609 407.072L-51.9426 406.202C-70.0432 399.291 -87.142 392.764 -102.969 388.013C-162.614 370.108 -220.299 354.994 -263.89 343.829L-263.577 342.851C-219.975 354.022 -162.275 369.138 -102.608 387.05C-86.7386 391.813 -69.6211 398.349 -51.4964 405.268L-49.2174 406.138C-11.3356 420.475 25.6592 433.263 61.7509 432.216C106.061 430.821 133.606 403.456 154.71 376.871C159.759 370.526 164.648 364.198 168.346 359.394C170.422 356.698 172.482 354.01 174.536 351.328C191.149 329.65 206.839 309.171 226.944 290.329C253.599 265.345 286.912 240.368 320.744 219.994C352.144 201.086 383.555 186.567 414.103 176.838C449.153 165.675 483.417 160.733 515.94 162.145C564.813 164.267 610.488 180.999 651.691 211.869C672.07 227.162 691.047 243.456 713.27 263.213C719.589 268.832 725.956 274.548 732.114 280.076C769.734 313.855 805.267 345.76 846.804 371.776C863.681 382.354 881.407 392.544 899.497 402.065C921.996 413.871 944.566 424.478 966.586 433.588C1001.15 447.892 1044.17 465.691 1086.99 457.678C1110.39 453.297 1127.92 442.653 1140.58 425.137C1165.29 391.184 1166.78 338.786 1167.97 296.684C1168.36 282.946 1168.73 269.969 1169.91 259.514L1169.94 259.275C1172.58 235.861 1175.31 211.651 1181.58 187.765C1187 166.929 1194.56 148.198 1204.04 132.085C1214.72 113.919 1227.9 99.0448 1243.2 87.8721C1253.44 80.3965 1264.27 74.4577 1276.31 69.7185C1308.85 56.8394 1348.71 54.8511 1391.61 63.9733C1408.87 67.6441 1425.89 73.2054 1442.22 80.4993C1458.64 87.8363 1474 96.7816 1487.89 107.082C1519.27 130.314 1545.28 160.465 1565.2 196.698C1583.11 229.265 1595.61 266.416 1601.35 304.13L1600.23 304.267C1587.94 223.546 1546.73 151.959 1487.17 107.863C1459.32 87.2101 1426.18 72.3737 1391.35 64.9674C1348.7 55.8978 1309.08 57.8647 1276.78 70.6554C1264.83 75.3587 1254.09 81.2497 1243.93 88.6656C1215.35 109.527 1194.18 143.877 1182.69 188.001C1176.44 211.826 1173.71 236.002 1171.07 259.382L1171.04 259.621C1169.87 270.039 1169.5 282.997 1169.11 296.715C1167.91 338.946 1166.42 391.502 1141.53 425.694C1135.43 434.14 1128 441.147 1119.44 446.52C1110.22 452.313 1099.38 456.402 1087.22 458.679C1079.98 460.032 1072.52 460.711 1064.78 460.711Z" fill="#3D3E40" fill-opacity="0.25"/>
<path d="M62.6212 466.562C46.9759 466.562 29.9386 463.836 10.7104 458.267C-8.39474 452.735 -27.2889 445.097 -44.8632 437.669C-48.0452 436.316 -51.2031 434.966 -54.3397 433.625C-69.953 426.95 -84.7007 420.646 -98.4839 415.734C-153.443 396.159 -205.829 378.565 -256.493 361.553L-264.887 358.733L-264.465 357.727L-256.07 360.547C-205.405 377.563 -153.01 395.158 -98.0404 414.738C-84.2198 419.661 -69.4534 425.973 -53.8214 432.657C-50.6875 433.998 -47.5296 435.348 -44.3503 436.699C-8.27454 451.946 30.0534 466.723 67.2272 465.406C112.924 463.704 140.308 431.861 159.058 404.313C163.862 397.268 168.489 390.246 171.984 384.917C173.913 381.98 175.828 379.045 177.739 376.117C193.582 351.848 208.546 328.924 228.225 307.31C254.202 278.784 287.483 249.786 321.943 225.66C353.912 203.276 386.173 185.591 417.832 173.097C454.146 158.764 489.615 151.327 523.254 150.99C573.872 150.316 620.885 165.893 662.97 197.285C686.299 214.707 707.215 233.553 724.603 249.692C734.063 258.475 743.524 267.478 752.674 276.184C785.063 307.007 818.555 338.876 856.116 364.689C872.895 376.222 890.506 387.398 908.457 397.901C930.672 410.871 953.232 422.777 975.514 433.288C1010.34 449.716 1053.68 470.162 1097.23 462.906C1121.2 458.912 1138.84 448.206 1151.16 430.174C1175.55 394.682 1173.9 339.413 1172.57 295.005C1172.18 281.872 1171.81 269.466 1172.26 259.479C1173.26 236.964 1174.77 210.797 1180 185.168C1184.4 163.451 1191.06 143.804 1199.77 126.773C1209.63 107.509 1222.26 91.3577 1237.31 78.7678C1247.29 70.4247 1258.47 63.3435 1270.53 57.7177C1287.76 49.6638 1307.08 44.5996 1327.98 42.6686C1347.54 40.8594 1368.17 41.8106 1389.29 45.4934C1407.11 48.6003 1424.66 53.7098 1441.47 60.6835C1458.39 67.7002 1474.16 76.4424 1488.35 86.6663C1504.71 98.4389 1519.75 112.341 1533.05 127.987C1545.65 142.812 1556.82 159.345 1566.25 177.126C1583.89 210.391 1595.5 248.309 1599.81 286.774L1598.62 286.881C1589.34 204.28 1548.88 131.611 1487.6 87.5052C1459.53 67.282 1424.54 52.7372 1389.06 46.5497C1345.2 38.8997 1304.4 43.0916 1271.09 58.6712C1259.12 64.2516 1248.03 71.2779 1238.13 79.554C1209.77 103.276 1190.61 138.873 1181.18 185.361C1175.96 210.921 1174.46 237.043 1173.46 259.522C1173.02 269.473 1173.38 281.86 1173.78 294.976C1174.43 316.884 1175.17 341.717 1172.69 365.724C1169.81 393.58 1163.11 414.845 1152.19 430.736C1146.25 439.43 1138.87 446.588 1130.26 452.008C1120.96 457.863 1109.92 461.885 1097.45 463.962C1091.16 465.011 1084.87 465.487 1078.62 465.487C1041.2 465.487 1004.94 448.38 974.955 434.237C952.641 423.709 930.047 411.786 907.803 398.797C889.825 388.279 872.189 377.088 855.387 365.537C817.748 339.672 784.221 307.769 751.8 276.918C742.653 268.214 733.195 259.214 723.74 250.436C706.376 234.316 685.489 215.495 662.203 198.107C620.346 166.883 573.607 151.396 523.273 152.061C444.226 152.854 370.562 192.978 322.685 226.501C288.296 250.579 255.081 279.516 229.161 307.984C209.54 329.534 194.597 352.422 178.778 376.653C176.868 379.58 174.949 382.515 173.02 385.455C169.523 390.786 164.893 397.813 160.087 404.865C152.216 416.43 139.86 433.264 123.493 445.883C115.545 452.01 107.086 456.826 98.3523 460.198C88.614 463.957 78.1571 466.07 67.278 466.474C65.7364 466.534 64.1842 466.562 62.6212 466.562Z" fill="#3D3E40" fill-opacity="0.25"/>
<path d="M67.644 499.835C51.98 499.835 34.9774 496.898 15.8508 490.904C-3.95172 484.7 -23.5298 475.977 -40.0675 468.26C-45.1491 465.884 -50.2199 463.475 -55.1251 461.145C-68.8362 454.633 -81.7885 448.479 -94.0008 443.455C-137.856 425.412 -181.426 407.796 -223.564 390.758C-237.502 385.123 -251.913 379.296 -265.881 373.637L-265.357 372.602C-251.39 378.262 -236.979 384.088 -223.04 389.724C-180.903 406.761 -137.327 424.379 -93.4691 442.425C-81.2248 447.463 -68.2565 453.622 -54.5294 460.144C-49.6268 462.474 -44.556 464.881 -39.4798 467.256C-5.18069 483.254 34.6033 500.189 72.6989 498.595C119.472 496.592 145.743 461.822 163.408 431.754C167.936 424.052 172.315 416.318 175.623 410.441C177.322 407.425 179.01 404.412 180.696 401.405C195.85 374.364 210.162 348.823 229.511 324.296C254.675 292.395 287.93 259.379 323.142 231.329C372.181 192.434 447.974 144.99 530.567 139.844C583.092 136.484 631.436 150.905 674.25 182.709C693.486 197.006 712.508 213.496 735.934 236.183C747.772 247.647 759.519 259.53 770.879 271.018C800.436 300.908 830.995 331.817 865.43 357.615C882.112 370.117 899.604 382.274 917.418 393.75C938.99 407.633 961.541 420.84 984.443 433.004C1019.62 451.576 1063.4 474.693 1107.47 468.15C1131.63 464.637 1149.89 453.56 1161.74 435.229C1185.79 398.131 1180.63 337.438 1176.86 293.122C1175.8 280.685 1174.8 268.939 1174.61 259.463C1174.17 238.403 1174.21 210.635 1178.42 182.59C1185.69 133.992 1203.53 96.0019 1231.43 69.6821C1241.2 60.4094 1252.42 52.3531 1264.76 45.7355C1282.3 36.3098 1302.1 29.9694 1323.61 26.8936C1343.87 23.9971 1365.19 24.0425 1386.98 27.0299C1405.37 29.6062 1423.45 34.276 1440.73 40.9055C1458.17 47.602 1474.35 56.1339 1488.81 66.2646C1505.53 77.9703 1520.81 91.92 1534.21 107.729C1546.92 122.711 1558.05 139.479 1567.3 157.57C1584.67 191.535 1595.38 230.218 1598.28 269.436L1597.01 269.51C1590.77 185.023 1551.05 111.269 1488.03 67.1608C1459.46 47.1503 1423.5 33.2962 1386.79 28.1531C1341.53 21.9514 1299.56 28.3682 1265.41 46.7106C1253.18 53.2732 1242.05 61.265 1232.35 70.4636C1204.64 96.609 1186.92 134.383 1179.68 182.743C1175.48 210.712 1175.44 238.425 1175.88 259.444C1176.08 268.886 1177.07 280.618 1178.13 293.038C1180.08 315.945 1182.28 341.911 1181.02 367.261C1179.55 396.778 1173.61 419.198 1162.84 435.801C1157.05 444.755 1149.73 452.068 1141.08 457.537C1131.7 463.466 1120.46 467.414 1107.68 469.273C1087.86 472.215 1066.52 469.572 1042.45 461.191C1021.53 453.904 1001.49 443.321 983.802 433.987C960.865 421.805 938.284 408.58 916.681 394.678C898.839 383.185 881.324 371.011 864.618 358.493C830.11 332.641 799.517 301.699 769.931 271.778C758.576 260.292 746.831 248.417 735.004 236.962C711.619 214.316 692.631 197.856 673.44 183.594C630.88 151.971 582.843 137.636 530.652 140.975C448.415 146.101 372.873 193.399 323.981 232.178C288.838 260.17 255.653 293.117 230.542 324.95C211.247 349.409 196.956 374.913 181.826 401.914C180.141 404.923 178.452 407.937 176.753 410.953C173.443 416.834 169.061 424.575 164.527 432.285C146.707 462.62 120.172 497.701 72.755 499.73C71.0692 499.799 69.3619 499.835 67.644 499.835Z" fill="#3D3E40" fill-opacity="0.25"/>
<path d="M72.7681 533.109C29.9678 533.109 -14.9406 509.594 -54.7513 488.747C-66.985 482.343 -78.54 476.291 -89.5206 471.175L-266.875 388.54L-266.258 387.481L-88.9034 470.116C-77.8934 475.245 -66.325 481.303 -54.0754 487.717C-12.7257 509.37 34.1436 533.912 78.1703 531.785C125.975 529.478 151.158 491.78 167.757 459.199C173.186 448.542 178.428 437.7 183.499 427.213C197.367 398.534 211.706 368.878 230.79 341.277C245.944 319.362 264.769 296.379 285.228 274.815C307.673 251.157 331.705 229.452 356.651 210.304C384.156 189.195 412.123 171.732 439.772 158.403C470.355 143.663 500.483 134.038 529.327 129.796C587.107 121.3 639.659 134.194 685.519 168.123C723.63 196.316 756.022 231.18 787.347 264.897C814.615 294.244 842.809 324.589 874.735 350.529C911.613 380.488 951.525 408.137 993.366 432.702C1028.62 453.401 1072.49 479.164 1117.71 473.373C1155.9 468.484 1177.98 445.627 1185.21 403.493C1191.36 367.654 1185.51 325.141 1180.81 290.982C1179.21 279.341 1177.7 268.345 1176.95 259.428C1172.86 210.273 1175.47 169.696 1184.94 135.379C1190.85 113.968 1199.57 94.8826 1210.86 78.6529C1223.47 60.5232 1239.65 45.4096 1258.97 33.7326C1275.68 23.6306 1294.51 16.2936 1314.95 11.9249C1334.4 7.7665 1354.88 6.3732 1375.82 7.78323C1417.01 10.5555 1457.29 24.0727 1489.26 45.8421C1506.35 57.4785 1521.86 71.4784 1535.37 87.45C1548.17 102.588 1559.26 119.592 1568.34 137.994C1585.43 172.659 1595.24 212.109 1596.72 252.075L1595.38 252.115C1592.23 167.007 1552.26 90.251 1488.45 46.7957C1420.68 0.647031 1324.48 -4.43147 1259.71 34.7244C1195.55 73.5122 1168.91 146.984 1178.28 259.34C1179.02 268.228 1180.53 279.21 1182.13 290.836C1186.84 325.069 1192.71 367.674 1186.53 403.675C1183.16 423.284 1176.4 439.043 1166.42 450.516C1160.81 456.967 1154.05 462.239 1146.32 466.182C1138.1 470.379 1128.53 473.197 1117.9 474.559C1113.55 475.116 1109.13 475.395 1104.63 475.395C1088.25 475.395 1070.79 471.689 1051.67 464.179C1030.13 455.719 1009.33 443.512 992.629 433.704C950.731 409.102 910.763 381.418 873.833 351.415C841.834 325.42 813.61 295.04 786.313 265.661C755.028 231.988 722.677 197.167 684.661 169.045C639.109 135.348 586.918 122.538 529.535 130.977C413.461 148.046 293.893 252.283 231.918 341.908C212.885 369.432 198.564 399.048 184.714 427.688C179.641 438.18 174.396 449.03 168.962 459.696C157.941 481.327 147.057 496.816 134.708 508.435C127.001 515.686 118.638 521.403 109.854 525.425C100.086 529.897 89.4475 532.439 78.2318 532.982C76.4203 533.066 74.5956 533.109 72.7681 533.109Z" fill="#3D3E40" fill-opacity="0.25"/>
</g>
</svg>
