<svg width="240" height="150" viewBox="0 0 240 150" fill="none" xmlns="http://www.w3.org/2000/svg">
<path d="M239.37 10.41C239.83 8.9 240.05 7.5 239.99 6.25C239.84 2.63 237.35 0 231.49 0H205.31C198.7 0 195.65 4.00001 193.87 8.01001C193.87 8.01001 177.55 41.6 158.74 63.75C152.64 70.16 149.54 70 146.24 70C144.47 70 140 67.86 140 61.99V10.14C140 3.2 138.27 0 132.68 0H86.19C82.12 0 80 3.20001 80 6.41001C80 13.08 88.98 14.68 90 33.37V69.6C90 78.4 88.47 80 85.17 80C76.27 80 58.75 50 47.02 10.68C44.48 2.94001 41.94 0 35.33 0H8.9C1.27 0 0 3.74 0 7.74C0 14.95 6 53.93 38.75 98.75C62.5 131.25 93.79 150 121.49 150C138.27 150 139.99 145.73 139.99 139.06V109.34C140 101.33 141.83 100 147.17 100C150.98 100 158.75 102.5 173.75 120C191.05 140.18 194.19 150 204.11 150H230.29C236.37 150 239.86 147.45 240 142.5C240.03 141.24 239.85 139.83 239.44 138.26C237.5 132.5 228.6 118.42 217.5 105C211.35 97.57 205.28 90.21 202.49 86.21C200.62 83.6 199.91 81.76 200 80C200.09 78.15 201.05 76.39 202.49 73.93C202.23 73.93 236.07 26.42 239.37 10.41Z" fill="white"/>
</svg>
